<?xml version="1.0" encoding="utf-8"?>
<!-- Generator: Adobe Illustrator 15.1.0, SVG Export Plug-In . SVG Version: 6.00 Build 0)  -->
<!DOCTYPE svg PUBLIC "-//W3C//DTD SVG 1.1//EN" "http://www.w3.org/Graphics/SVG/1.1/DTD/svg11.dtd">
<svg version="1.1" id="Ebene_1" xmlns="http://www.w3.org/2000/svg" xmlns:xlink="http://www.w3.org/1999/xlink" x="0px" y="0px"
	 width="1500px" height="360px" viewBox="0 0 1500 360" enable-background="new 0 0 1500 360" xml:space="preserve">
<g>
	<defs>
		<rect id="SVGID_1_" width="1500" height="360"/>
	</defs>
	<clipPath id="SVGID_2_">
		<use xlink:href="#SVGID_1_"  overflow="visible"/>
	</clipPath>
	<path clip-path="url(#SVGID_2_)" d="M170.652,48.549c6.152,0,12.304,2.333,16.971,7l107.48,107.48
		c9.334,9.334,9.334,24.608,0,33.942l-107.48,107.48c-4.667,4.667-10.819,7-16.971,7c-6.151,0-12.304-2.333-16.971-7l-107.48-107.48
		c-9.333-9.334-9.333-24.608,0-33.942l107.48-107.48C158.348,50.882,164.501,48.549,170.652,48.549 M170.652,29.349
		c-11.558,0-22.406,4.483-30.547,12.624l-107.48,107.48c-8.141,8.141-12.624,18.989-12.624,30.547
		c0,11.558,4.483,22.406,12.624,30.547l107.48,107.48c8.141,8.141,18.989,12.624,30.547,12.624s22.406-4.483,30.547-12.624
		l107.48-107.48c8.141-8.141,12.624-18.989,12.624-30.547c0-11.558-4.483-22.406-12.624-30.547l-107.48-107.48
		C193.058,33.832,182.211,29.349,170.652,29.349 M65.571,183.337c-2.139,0-3.209,2.585-1.697,4.097l103.385,103.412
		c1.197,1.198,2.64,1.392,3.393,1.392c0.754,0,2.196-0.172,3.395-1.37L277.431,187.43c1.512-1.511,0.441-4.096-1.697-4.096
		L65.571,183.337z"/>
	<path clip-path="url(#SVGID_2_)" d="M377.9,132.728h-9.277v25.146h-17.139V86.779h27.979c8.43,0,15.021,1.87,19.775,5.61
		c4.752,3.739,7.129,9.023,7.129,15.852c0,4.943-1.002,9.04-3.004,12.291c-2.002,3.252-5.135,5.887-9.398,7.903l14.844,28.705v0.733
		h-18.36L377.9,132.728z M368.623,119.543h10.84c3.254,0,5.704-0.856,7.347-2.569c1.645-1.714,2.467-4.105,2.467-7.172
		c0-3.068-0.83-5.474-2.49-7.22c-1.66-1.745-4.101-2.619-7.324-2.619h-10.84V119.543z"/>
	<rect x="416.16" y="86.78" clip-path="url(#SVGID_2_)" width="17.09" height="71.094"/>
	<polygon clip-path="url(#SVGID_2_)" points="488.736,127.698 461.783,127.698 461.783,144.69 493.619,144.69 493.619,157.874 
		444.645,157.874 444.645,86.78 493.716,86.78 493.716,100.012 461.783,100.012 461.783,115.003 488.736,115.003 	"/>
	<path clip-path="url(#SVGID_2_)" d="M536.512,138.977c0-2.506-0.888-4.459-2.662-5.859s-4.891-2.848-9.35-4.346
		c-4.461-1.497-8.105-2.945-10.937-4.346c-9.213-4.524-13.819-10.742-13.819-18.652c0-3.939,1.147-7.413,3.442-10.425
		c2.295-3.011,5.543-5.354,9.742-7.031c4.199-1.676,8.918-2.515,14.16-2.515c5.11,0,9.692,0.912,13.744,2.735
		c4.053,1.823,7.203,4.418,9.45,7.788c2.246,3.369,3.369,7.218,3.369,11.547h-17.09c0-2.896-0.888-5.142-2.662-6.738
		c-1.774-1.595-4.174-2.392-7.201-2.392c-3.061,0-5.478,0.675-7.252,2.026c-1.774,1.352-2.661,3.068-2.661,5.151
		c0,1.824,0.977,3.476,2.93,4.956c1.953,1.482,5.387,3.012,10.303,4.59c4.914,1.579,8.951,3.281,12.109,5.103
		c7.682,4.428,11.524,10.531,11.524,18.31c0,6.218-2.344,11.101-7.032,14.649c-4.687,3.549-11.117,5.322-19.287,5.322
		c-5.761,0-10.978-1.033-15.65-3.101c-4.671-2.066-8.187-4.898-10.547-8.496c-2.359-3.596-3.539-7.739-3.539-12.426h17.187
		c0,3.808,0.985,6.616,2.954,8.422c1.969,1.807,5.168,2.71,9.595,2.71c2.832,0,5.07-0.61,6.713-1.831
		C535.689,142.908,536.512,141.191,536.512,138.977"/>
	<path clip-path="url(#SVGID_2_)" d="M619.092,149.084c-2.637,2.93-6.494,5.29-11.572,7.08c-5.078,1.79-10.645,2.686-16.699,2.686
		c-9.311,0-16.749-2.848-22.315-8.545c-5.566-5.697-8.545-13.623-8.935-23.78l-0.049-6.152c0-6.998,1.236-13.11,3.711-18.335
		c2.473-5.225,6.013-9.244,10.62-12.06c4.606-2.816,9.936-4.224,15.991-4.224c8.853,0,15.73,2.026,20.63,6.079
		c4.899,4.053,7.755,10.1,8.569,18.14h-16.504c-0.586-3.971-1.855-6.803-3.808-8.496c-1.953-1.693-4.721-2.539-8.301-2.539
		c-4.297,0-7.617,1.823-9.961,5.468c-2.344,3.647-3.532,8.855-3.565,15.625v4.297c0,7.097,1.213,12.427,3.638,15.991
		c2.425,3.565,6.241,5.347,11.45,5.347c4.459,0,7.78-0.992,9.961-2.978v-11.036h-11.914v-11.767h29.053V149.084z"/>
	<path clip-path="url(#SVGID_2_)" d="M688.458,123.792c0,6.933-1.286,13.07-3.858,18.408c-2.571,5.339-6.225,9.448-10.962,12.329
		c-4.736,2.881-10.132,4.321-16.187,4.321c-6.055,0-11.426-1.391-16.113-4.175c-4.688-2.783-8.342-6.762-10.962-11.938
		c-2.622-5.176-3.997-11.116-4.126-17.822v-4.004c0-6.966,1.277-13.111,3.833-18.433c2.554-5.322,6.216-9.432,10.986-12.329
		c4.769-2.897,10.197-4.346,16.284-4.346c6.023,0,11.394,1.433,16.113,4.297c4.72,2.865,8.39,6.942,11.011,12.232
		c2.62,5.29,3.947,11.352,3.98,18.188V123.792z M671.026,120.813c0-7.063-1.181-12.427-3.54-16.089
		c-2.36-3.662-5.737-5.493-10.132-5.493c-8.594,0-13.135,6.445-13.623,19.336l-0.049,5.225c0,6.966,1.156,12.321,3.467,16.064
		c2.312,3.744,5.745,5.615,10.303,5.615c4.329,0,7.666-1.839,10.01-5.517c2.343-3.678,3.532-8.968,3.564-15.87V120.813z"/>
	<path clip-path="url(#SVGID_2_)" d="M732.445,138.977c0-2.506-0.887-4.459-2.66-5.859c-1.776-1.4-4.892-2.848-9.352-4.346
		c-4.459-1.497-8.105-2.945-10.937-4.346c-9.212-4.524-13.819-10.742-13.819-18.652c0-3.939,1.149-7.413,3.444-10.425
		c2.295-3.011,5.541-5.354,9.74-7.031c4.199-1.676,8.92-2.515,14.16-2.515c5.112,0,9.694,0.912,13.746,2.735
		c4.053,1.823,7.201,4.418,9.448,7.788c2.246,3.369,3.369,7.218,3.369,11.547h-17.09c0-2.896-0.887-5.142-2.66-6.738
		c-1.776-1.595-4.176-2.392-7.203-2.392c-3.06,0-5.477,0.675-7.25,2.026c-1.776,1.352-2.663,3.068-2.663,5.151
		c0,1.824,0.977,3.476,2.93,4.956c1.953,1.482,5.388,3.012,10.303,4.59c4.916,1.579,8.952,3.281,12.109,5.103
		c7.683,4.428,11.524,10.531,11.524,18.31c0,6.218-2.344,11.101-7.032,14.649c-4.687,3.549-11.116,5.322-19.287,5.322
		c-5.761,0-10.978-1.033-15.648-3.101c-4.672-2.066-8.188-4.898-10.547-8.496c-2.361-3.596-3.541-7.739-3.541-12.426h17.187
		c0,3.808,0.985,6.616,2.956,8.422c1.968,1.807,5.167,2.71,9.593,2.71c2.832,0,5.071-0.61,6.715-1.831
		C731.623,142.908,732.445,141.191,732.445,138.977"/>
	<path clip-path="url(#SVGID_2_)" d="M362.847,213.804h-9.246l-1.758,5.274h-5.607l9.527-25.595h4.887l9.58,25.595h-5.607
		L362.847,213.804z M355.025,209.532h6.398l-3.216-9.579L355.025,209.532z"/>
	<polygon clip-path="url(#SVGID_2_)" points="393.48,219.077 388.208,219.077 377.941,202.237 377.941,219.077 372.668,219.077 
		372.668,193.483 377.941,193.483 388.225,210.358 388.225,193.483 393.48,193.483 	"/>
	<path clip-path="url(#SVGID_2_)" d="M412.561,213.805h-9.246l-1.758,5.272h-5.608l9.528-25.594h4.887l9.58,25.594h-5.608
		L412.561,213.805z M404.739,209.532h6.398l-3.217-9.58L404.739,209.532z M409.01,186.628h5.537l-4.869,5.449h-4.131L409.01,186.628
		z"/>
	<polygon clip-path="url(#SVGID_2_)" points="427.654,214.841 438.851,214.841 438.851,219.077 422.381,219.077 422.381,193.484 
		427.654,193.484 	"/>
	<rect x="441.755" y="193.484" clip-path="url(#SVGID_2_)" width="5.273" height="25.594"/>
	<path clip-path="url(#SVGID_2_)" d="M464.913,212.363c0-0.996-0.352-1.762-1.055-2.295c-0.703-0.532-1.968-1.096-3.797-1.687
		c-1.828-0.592-3.275-1.175-4.341-1.749c-2.907-1.571-4.36-3.686-4.36-6.346c0-1.384,0.39-2.616,1.169-3.7
		c0.78-1.084,1.899-1.931,3.358-2.54c1.459-0.61,3.096-0.914,4.913-0.914c1.828,0,3.457,0.331,4.886,0.993
		c1.43,0.662,2.54,1.596,3.331,2.803c0.792,1.207,1.187,2.579,1.187,4.114h-5.273c0-1.172-0.37-2.083-1.108-2.734
		c-0.738-0.649-1.775-0.975-3.111-0.975c-1.289,0-2.291,0.271-3.006,0.816s-1.072,1.264-1.072,2.153c0,0.832,0.419,1.53,1.257,2.092
		c0.837,0.563,2.071,1.09,3.7,1.582c3,0.903,5.185,2.022,6.556,3.358s2.057,3,2.057,4.992c0,2.215-0.838,3.952-2.514,5.212
		c-1.675,1.26-3.931,1.889-6.767,1.889c-1.969,0-3.762-0.36-5.379-1.081c-1.617-0.72-2.851-1.708-3.7-2.962
		c-0.85-1.253-1.275-2.707-1.275-4.359h5.291c0,2.824,1.688,4.236,5.063,4.236c1.254,0,2.232-0.254,2.935-0.764
		C464.561,213.989,464.913,213.276,464.913,212.363"/>
	<rect x="474.06" y="193.484" clip-path="url(#SVGID_2_)" width="5.273" height="25.594"/>
	<path clip-path="url(#SVGID_2_)" d="M497.218,212.363c0-0.996-0.352-1.762-1.055-2.295c-0.703-0.532-1.968-1.096-3.797-1.687
		c-1.828-0.592-3.275-1.175-4.341-1.749c-2.907-1.571-4.36-3.686-4.36-6.346c0-1.384,0.39-2.616,1.169-3.7
		c0.78-1.084,1.899-1.931,3.358-2.54c1.459-0.61,3.096-0.914,4.913-0.914c1.828,0,3.457,0.331,4.886,0.993
		c1.43,0.662,2.54,1.596,3.331,2.803c0.792,1.207,1.187,2.579,1.187,4.114h-5.273c0-1.172-0.37-2.083-1.108-2.734
		c-0.738-0.649-1.775-0.975-3.111-0.975c-1.289,0-2.291,0.271-3.006,0.816s-1.072,1.264-1.072,2.153c0,0.832,0.419,1.53,1.257,2.092
		c0.837,0.563,2.071,1.09,3.7,1.582c3,0.903,5.185,2.022,6.556,3.358s2.057,3,2.057,4.992c0,2.215-0.838,3.952-2.514,5.212
		c-1.675,1.26-3.931,1.889-6.767,1.889c-1.969,0-3.762-0.36-5.379-1.081c-1.617-0.72-2.851-1.708-3.7-2.962
		c-0.85-1.253-1.275-2.707-1.275-4.359h5.291c0,2.824,1.688,4.236,5.063,4.236c1.254,0,2.232-0.254,2.935-0.764
		C496.866,213.989,497.218,213.276,497.218,212.363"/>
	<path clip-path="url(#SVGID_2_)" d="M515.042,219.077v-25.593h7.875c2.25,0,4.262,0.506,6.038,1.521
		c1.775,1.014,3.161,2.454,4.157,4.323s1.494,3.993,1.494,6.372v1.178c0,2.38-0.489,4.494-1.468,6.347
		c-0.979,1.851-2.358,3.287-4.139,4.306c-1.782,1.021-3.791,1.536-6.03,1.547H515.042z M520.315,197.756v17.086h2.549
		c2.062,0,3.638-0.675,4.728-2.022c1.09-1.347,1.647-3.275,1.67-5.783v-1.353c0-2.603-0.539-4.574-1.617-5.915
		c-1.078-1.342-2.654-2.013-4.728-2.013H520.315z"/>
	<polygon clip-path="url(#SVGID_2_)" points="553.7,207.985 543.575,207.985 543.575,214.841 555.458,214.841 555.458,219.078 
		538.302,219.078 538.302,193.483 555.423,193.483 555.423,197.756 543.575,197.756 543.575,203.854 553.7,203.854 	"/>
	<polygon clip-path="url(#SVGID_2_)" points="574.407,193.484 580.981,212.046 587.52,193.484 594.446,193.484 594.446,219.078 
		589.155,219.078 589.155,212.082 589.682,200.005 582.774,219.078 579.153,219.078 572.262,200.022 572.79,212.082 572.79,219.078 
		567.516,219.078 567.516,193.484 	"/>
	<path clip-path="url(#SVGID_2_)" d="M618.581,193.484v16.856c0,2.801-0.876,5.016-2.628,6.646
		c-1.752,1.629-4.145,2.442-7.181,2.442c-2.988,0-5.361-0.791-7.119-2.373c-1.758-1.582-2.654-3.756-2.689-6.521v-17.051h5.273
		v16.893c0,1.675,0.402,2.896,1.204,3.665c0.803,0.767,1.913,1.151,3.331,1.151c2.965,0,4.471-1.56,4.518-4.677v-17.032H618.581z"/>
	<polygon clip-path="url(#SVGID_2_)" points="628.348,214.841 639.545,214.841 639.545,219.077 623.075,219.077 623.075,193.484 
		628.348,193.484 	"/>
	<polygon clip-path="url(#SVGID_2_)" points="658.35,197.756 650.51,197.756 650.51,219.077 645.236,219.077 645.236,197.756 
		637.501,197.756 637.501,193.484 658.35,193.484 	"/>
	<rect x="661.254" y="193.484" clip-path="url(#SVGID_2_)" width="5.273" height="25.594"/>
	<path clip-path="url(#SVGID_2_)" d="M680.82,209.708h-4.201v9.37h-5.273v-25.594h9.509c3.024,0,5.356,0.674,6.996,2.021
		c1.641,1.348,2.461,3.252,2.461,5.713c0,1.746-0.378,3.202-1.133,4.368c-0.756,1.166-1.902,2.095-3.437,2.787l5.537,10.459v0.246
		h-5.66L680.82,209.708z M676.619,205.437h4.254c1.324,0,2.35-0.337,3.076-1.011c0.727-0.674,1.09-1.602,1.09-2.786
		c0-1.207-0.343-2.155-1.028-2.848c-0.686-0.691-1.738-1.037-3.156-1.037h-4.236V205.437z"/>
	<rect x="694.371" y="193.484" clip-path="url(#SVGID_2_)" width="5.273" height="25.594"/>
	<polygon clip-path="url(#SVGID_2_)" points="719.86,207.985 709.735,207.985 709.735,214.841 721.618,214.841 721.618,219.078 
		704.462,219.078 704.462,193.483 721.583,193.483 721.583,197.756 709.735,197.756 709.735,203.854 719.86,203.854 	"/>
	<path clip-path="url(#SVGID_2_)" d="M737.868,212.363c0-0.996-0.352-1.762-1.055-2.295c-0.703-0.532-1.968-1.096-3.797-1.687
		c-1.828-0.592-3.275-1.175-4.341-1.749c-2.907-1.571-4.36-3.686-4.36-6.346c0-1.384,0.39-2.616,1.169-3.7
		c0.78-1.084,1.899-1.931,3.358-2.54c1.459-0.61,3.096-0.914,4.913-0.914c1.828,0,3.457,0.331,4.886,0.993
		c1.43,0.662,2.54,1.596,3.331,2.803c0.792,1.207,1.187,2.579,1.187,4.114h-5.273c0-1.172-0.37-2.083-1.108-2.734
		c-0.738-0.649-1.775-0.975-3.111-0.975c-1.289,0-2.291,0.271-3.006,0.816s-1.072,1.264-1.072,2.153c0,0.832,0.419,1.53,1.257,2.092
		c0.837,0.563,2.071,1.09,3.7,1.582c3,0.903,5.185,2.022,6.556,3.358c1.371,1.336,2.057,3,2.057,4.992
		c0,2.215-0.838,3.952-2.514,5.212c-1.675,1.26-3.931,1.889-6.767,1.889c-1.969,0-3.762-0.36-5.379-1.081
		c-1.617-0.72-2.851-1.708-3.7-2.962c-0.85-1.253-1.275-2.707-1.275-4.359h5.291c0,2.824,1.688,4.236,5.063,4.236
		c1.254,0,2.232-0.254,2.935-0.764C737.516,213.989,737.868,213.276,737.868,212.363"/>
	<path clip-path="url(#SVGID_2_)" d="M766.667,215.844c-0.949,1.137-2.291,2.019-4.025,2.646c-1.734,0.626-3.656,0.94-5.766,0.94
		c-2.215,0-4.157-0.483-5.827-1.45s-2.959-2.37-3.867-4.21c-0.909-1.84-1.374-4.002-1.398-6.487v-1.74
		c0-2.554,0.431-4.766,1.292-6.636c0.862-1.869,2.104-3.298,3.727-4.289c1.623-0.99,3.524-1.485,5.704-1.485
		c3.035,0,5.408,0.725,7.119,2.172c1.711,1.446,2.725,3.554,3.041,6.318h-5.133c-0.234-1.465-0.753-2.537-1.556-3.216
		c-0.803-0.68-1.907-1.02-3.313-1.02c-1.793,0-3.158,0.674-4.096,2.021c-0.938,1.348-1.412,3.353-1.424,6.012v1.636
		c0,2.684,0.51,4.711,1.529,6.082c1.02,1.37,2.513,2.057,4.482,2.057c1.98,0,3.393-0.422,4.236-1.266v-4.412h-4.799v-3.886h10.072
		V215.844z"/>
	<path clip-path="url(#SVGID_2_)" d="M791.703,206.86c0,2.521-0.445,4.729-1.336,6.627c-0.891,1.899-2.165,3.363-3.823,4.396
		c-1.658,1.031-3.56,1.547-5.704,1.547c-2.121,0-4.014-0.51-5.678-1.53c-1.664-1.019-2.953-2.475-3.867-4.368
		c-0.914-1.893-1.377-4.068-1.389-6.529v-1.267c0-2.519,0.454-4.736,1.362-6.652s2.191-3.388,3.85-4.412
		c1.658-1.026,3.554-1.538,5.687-1.538s4.028,0.512,5.687,1.538c1.658,1.024,2.941,2.496,3.849,4.412
		c0.909,1.916,1.363,4.128,1.363,6.636V206.86z M786.359,205.701c0-2.685-0.48-4.724-1.441-6.117
		c-0.961-1.396-2.332-2.092-4.113-2.092c-1.77,0-3.135,0.688-4.096,2.064s-1.447,3.396-1.459,6.056v1.248
		c0,2.613,0.48,4.642,1.441,6.082c0.961,1.442,2.344,2.162,4.148,2.162c1.77,0,3.129-0.693,4.078-2.083
		c0.949-1.388,1.43-3.413,1.441-6.073V205.701z"/>
	<polygon clip-path="url(#SVGID_2_)" points="813.324,205.015 818.65,193.484 824.416,193.484 816.014,209.796 816.014,219.078 
		810.652,219.078 810.652,209.796 802.25,193.484 808.033,193.484 	"/>
	<path clip-path="url(#SVGID_2_)" d="M855.811,210.552c-0.199,2.755-1.216,4.923-3.05,6.505s-4.251,2.373-7.251,2.373
		c-3.281,0-5.862-1.105-7.743-3.314s-2.821-5.241-2.821-9.096v-1.565c0-2.461,0.434-4.629,1.301-6.504s2.106-3.313,3.718-4.315
		s3.483-1.503,5.616-1.503c2.953,0,5.332,0.791,7.137,2.373s2.848,3.804,3.129,6.662h-5.273c-0.129-1.651-0.589-2.85-1.38-3.594
		c-0.791-0.745-1.995-1.117-3.612-1.117c-1.758,0-3.073,0.63-3.946,1.891c-0.873,1.26-1.321,3.214-1.345,5.861v1.935
		c0,2.765,0.418,4.787,1.257,6.063c0.838,1.278,2.159,1.916,3.964,1.916c1.629,0,2.845-0.372,3.647-1.116
		c0.802-0.744,1.263-1.895,1.38-3.454H855.811z"/>
	<path clip-path="url(#SVGID_2_)" d="M880.113,206.86c0,2.521-0.446,4.729-1.336,6.627c-0.891,1.899-2.165,3.363-3.823,4.396
		c-1.659,1.031-3.56,1.547-5.705,1.547c-2.12,0-4.013-0.51-5.677-1.53c-1.664-1.019-2.953-2.475-3.867-4.368
		c-0.915-1.893-1.377-4.068-1.389-6.529v-1.267c0-2.519,0.454-4.736,1.362-6.652c0.907-1.916,2.191-3.388,3.85-4.412
		c1.658-1.026,3.554-1.538,5.687-1.538s4.028,0.512,5.687,1.538c1.658,1.024,2.941,2.496,3.849,4.412
		c0.909,1.916,1.363,4.128,1.363,6.636V206.86z M874.77,205.701c0-2.685-0.48-4.724-1.441-6.117
		c-0.961-1.396-2.332-2.092-4.113-2.092c-1.77,0-3.135,0.688-4.096,2.064s-1.447,3.396-1.459,6.056v1.248
		c0,2.613,0.48,4.642,1.441,6.082c0.961,1.442,2.344,2.162,4.147,2.162c1.771,0,3.13-0.693,4.079-2.083
		c0.949-1.388,1.43-3.413,1.441-6.073V205.701z"/>
	<polygon clip-path="url(#SVGID_2_)" points="890.771,193.484 897.346,212.046 903.885,193.484 910.811,193.484 910.811,219.078 
		905.52,219.078 905.52,212.082 906.047,200.005 899.139,219.078 895.518,219.078 888.627,200.022 889.154,212.082 889.154,219.078 
		883.881,219.078 883.881,193.484 	"/>
	<path clip-path="url(#SVGID_2_)" d="M920.761,210.06v9.018h-5.273v-25.594h9.984c1.922,0,3.612,0.353,5.071,1.056
		c1.459,0.702,2.581,1.701,3.365,2.996c0.786,1.296,1.179,2.77,1.179,4.422c0,2.508-0.858,4.484-2.575,5.933
		c-1.717,1.447-4.093,2.17-7.128,2.17H920.761z M920.761,205.789h4.711c1.394,0,2.458-0.328,3.19-0.984
		c0.732-0.657,1.099-1.594,1.099-2.813c0-1.254-0.369-2.267-1.107-3.041c-0.738-0.772-1.758-1.172-3.059-1.194h-4.834V205.789z"/>
	<path clip-path="url(#SVGID_2_)" d="M959.458,206.86c0,2.521-0.445,4.729-1.336,6.627c-0.891,1.899-2.165,3.363-3.823,4.396
		c-1.658,1.031-3.56,1.547-5.704,1.547c-2.121,0-4.014-0.51-5.678-1.53c-1.664-1.019-2.953-2.475-3.866-4.368
		c-0.915-1.893-1.378-4.068-1.39-6.529v-1.267c0-2.519,0.454-4.736,1.362-6.652s2.191-3.388,3.85-4.412
		c1.658-1.026,3.555-1.538,5.687-1.538c2.133,0,4.028,0.512,5.687,1.538c1.658,1.024,2.941,2.496,3.85,4.412
		s1.362,4.128,1.362,6.636V206.86z M954.114,205.701c0-2.685-0.479-4.724-1.441-6.117c-0.961-1.396-2.331-2.092-4.113-2.092
		c-1.77,0-3.134,0.688-4.096,2.064c-0.961,1.377-1.447,3.396-1.459,6.056v1.248c0,2.613,0.48,4.642,1.441,6.082
		c0.961,1.442,2.344,2.162,4.148,2.162c1.77,0,3.129-0.693,4.078-2.083c0.949-1.388,1.43-3.413,1.441-6.073V205.701z"/>
	<polygon clip-path="url(#SVGID_2_)" points="984.038,219.077 978.765,219.077 968.499,202.237 968.499,219.077 963.227,219.077 
		963.227,193.483 968.499,193.483 978.782,210.358 978.782,193.483 984.038,193.483 	"/>
	<polygon clip-path="url(#SVGID_2_)" points="1004.114,207.985 993.989,207.985 993.989,214.841 1005.872,214.841 1005.872,219.078 
		988.717,219.078 988.717,193.483 1005.837,193.483 1005.837,197.756 993.989,197.756 993.989,203.854 1004.114,203.854 	"/>
	<polygon clip-path="url(#SVGID_2_)" points="1030.105,219.077 1024.832,219.077 1014.566,202.237 1014.566,219.077 
		1009.293,219.077 1009.293,193.483 1014.566,193.483 1024.85,210.358 1024.85,193.483 1030.105,193.483 	"/>
	<polygon clip-path="url(#SVGID_2_)" points="1053.703,197.756 1045.863,197.756 1045.863,219.077 1040.59,219.077 1040.59,197.756 
		1032.855,197.756 1032.855,193.484 1053.703,193.484 	"/>
	<polygon clip-path="url(#SVGID_2_)" points="1071.841,207.985 1061.716,207.985 1061.716,214.841 1073.599,214.841 
		1073.599,219.078 1056.442,219.078 1056.442,193.483 1073.563,193.483 1073.563,197.756 1061.716,197.756 1061.716,203.854 
		1071.841,203.854 	"/>
	<path clip-path="url(#SVGID_2_)" d="M1089.849,212.363c0-0.996-0.353-1.762-1.055-2.295c-0.703-0.532-1.969-1.096-3.798-1.687
		c-1.827-0.592-3.274-1.175-4.341-1.749c-2.907-1.571-4.359-3.686-4.359-6.346c0-1.384,0.39-2.616,1.169-3.7s1.898-1.931,3.357-2.54
		c1.459-0.61,3.097-0.914,4.913-0.914c1.828,0,3.457,0.331,4.886,0.993c1.431,0.662,2.541,1.596,3.331,2.803
		c0.792,1.207,1.188,2.579,1.188,4.114h-5.273c0-1.172-0.37-2.083-1.107-2.734c-0.738-0.649-1.775-0.975-3.111-0.975
		c-1.289,0-2.291,0.271-3.006,0.816s-1.072,1.264-1.072,2.153c0,0.832,0.419,1.53,1.257,2.092c0.838,0.563,2.071,1.09,3.7,1.582
		c3,0.903,5.186,2.022,6.556,3.358c1.371,1.336,2.058,3,2.058,4.992c0,2.215-0.838,3.952-2.514,5.212s-3.932,1.889-6.768,1.889
		c-1.969,0-3.762-0.36-5.379-1.081c-1.617-0.72-2.851-1.708-3.7-2.962c-0.85-1.253-1.274-2.707-1.274-4.359h5.291
		c0,2.824,1.688,4.236,5.063,4.236c1.254,0,2.232-0.254,2.936-0.764C1089.496,213.989,1089.849,213.276,1089.849,212.363"/>
	<path clip-path="url(#SVGID_2_)" d="M348.399,259.077v-25.593h7.875c2.25,0,4.262,0.506,6.038,1.521
		c1.775,1.014,3.161,2.454,4.157,4.323s1.494,3.993,1.494,6.372v1.178c0,2.38-0.489,4.494-1.468,6.347
		c-0.978,1.851-2.358,3.287-4.139,4.306c-1.782,1.021-3.791,1.536-6.03,1.547H348.399z M353.672,237.756v17.086h2.549
		c2.062,0,3.638-0.675,4.728-2.022c1.09-1.347,1.647-3.275,1.67-5.783v-1.353c0-2.603-0.539-4.574-1.617-5.915
		c-1.078-1.342-2.654-2.013-4.728-2.013H353.672z"/>
	<polygon clip-path="url(#SVGID_2_)" points="387.057,247.985 376.932,247.985 376.932,254.841 388.814,254.841 388.814,259.078 
		371.659,259.078 371.659,233.483 388.78,233.483 388.78,237.756 376.932,237.756 376.932,243.854 387.057,243.854 	"/>
	<path clip-path="url(#SVGID_2_)" d="M420.244,233.484v16.856c0,2.801-0.876,5.016-2.628,6.646
		c-1.752,1.629-4.145,2.442-7.181,2.442c-2.988,0-5.361-0.791-7.119-2.373c-1.758-1.582-2.654-3.756-2.689-6.521v-17.051h5.273
		v16.893c0,1.675,0.402,2.896,1.204,3.665c0.803,0.767,1.913,1.151,3.331,1.151c2.965,0,4.471-1.56,4.518-4.677v-17.032H420.244z"/>
	<polygon clip-path="url(#SVGID_2_)" points="445.55,259.077 440.277,259.077 430.011,242.237 430.011,259.077 424.738,259.077 
		424.738,233.483 430.011,233.483 440.294,250.358 440.294,233.483 445.55,233.483 	"/>
	<path clip-path="url(#SVGID_2_)" d="M472.392,252.363c0-0.996-0.352-1.762-1.055-2.295c-0.703-0.532-1.968-1.096-3.797-1.687
		c-1.828-0.592-3.275-1.175-4.341-1.749c-2.907-1.571-4.36-3.686-4.36-6.346c0-1.384,0.39-2.616,1.169-3.7
		c0.78-1.084,1.899-1.931,3.358-2.54c1.459-0.61,3.096-0.914,4.913-0.914c1.828,0,3.457,0.331,4.886,0.993
		c1.43,0.662,2.54,1.596,3.331,2.803c0.792,1.207,1.187,2.579,1.187,4.114h-5.273c0-1.172-0.37-2.083-1.108-2.734
		c-0.738-0.649-1.775-0.975-3.111-0.975c-1.289,0-2.291,0.271-3.006,0.816s-1.072,1.264-1.072,2.153c0,0.832,0.419,1.53,1.257,2.092
		c0.837,0.563,2.071,1.09,3.7,1.582c3,0.903,5.185,2.022,6.556,3.358s2.057,3,2.057,4.992c0,2.215-0.838,3.952-2.514,5.212
		c-1.675,1.26-3.931,1.889-6.767,1.889c-1.969,0-3.762-0.36-5.379-1.081c-1.617-0.72-2.851-1.708-3.7-2.962
		c-0.85-1.253-1.275-2.707-1.275-4.359h5.291c0,2.824,1.688,4.236,5.063,4.236c1.254,0,2.232-0.254,2.935-0.764
		C472.04,253.989,472.392,253.276,472.392,252.363"/>
	<rect x="481.539" y="233.484" clip-path="url(#SVGID_2_)" width="5.273" height="25.594"/>
	<path clip-path="url(#SVGID_2_)" d="M504.696,252.363c0-0.996-0.352-1.762-1.055-2.295c-0.703-0.532-1.968-1.096-3.797-1.687
		c-1.828-0.592-3.275-1.175-4.341-1.749c-2.907-1.571-4.36-3.686-4.36-6.346c0-1.384,0.39-2.616,1.169-3.7
		c0.78-1.084,1.899-1.931,3.358-2.54c1.459-0.61,3.096-0.914,4.913-0.914c1.828,0,3.457,0.331,4.886,0.993
		c1.43,0.662,2.54,1.596,3.331,2.803c0.792,1.207,1.187,2.579,1.187,4.114h-5.273c0-1.172-0.37-2.083-1.108-2.734
		c-0.738-0.649-1.775-0.975-3.111-0.975c-1.289,0-2.291,0.271-3.006,0.816s-1.072,1.264-1.072,2.153c0,0.832,0.419,1.53,1.257,2.092
		c0.837,0.563,2.071,1.09,3.7,1.582c3,0.903,5.185,2.022,6.556,3.358s2.057,3,2.057,4.992c0,2.215-0.838,3.952-2.514,5.212
		c-1.675,1.26-3.931,1.889-6.767,1.889c-1.969,0-3.762-0.36-5.379-1.081c-1.617-0.72-2.851-1.708-3.7-2.962
		c-0.85-1.253-1.275-2.707-1.275-4.359h5.291c0,2.824,1.688,4.236,5.063,4.236c1.254,0,2.232-0.254,2.935-0.764
		C504.344,253.989,504.696,253.276,504.696,252.363"/>
	<polygon clip-path="url(#SVGID_2_)" points="532.814,237.756 524.975,237.756 524.975,259.077 519.702,259.077 519.702,237.756 
		511.966,237.756 511.966,233.484 532.814,233.484 	"/>
	<polygon clip-path="url(#SVGID_2_)" points="550.952,247.985 540.827,247.985 540.827,254.841 552.71,254.841 552.71,259.078 
		535.554,259.078 535.554,233.483 552.675,233.483 552.675,237.756 540.827,237.756 540.827,243.854 550.952,243.854 	"/>
	<polygon clip-path="url(#SVGID_2_)" points="563.021,233.484 569.596,252.046 576.134,233.484 583.061,233.484 583.061,259.078 
		577.77,259.078 577.77,252.082 578.296,240.005 571.389,259.078 567.768,259.078 560.876,240.022 561.404,252.082 561.404,259.078 
		556.13,259.078 556.13,233.484 	"/>
	<path clip-path="url(#SVGID_2_)" d="M602.141,253.804h-9.246l-1.758,5.274h-5.607l9.527-25.595h4.887l9.58,25.595h-5.607
		L602.141,253.804z M594.318,249.532h6.398l-3.216-9.579L594.318,249.532z"/>
	<path clip-path="url(#SVGID_2_)" d="M620.879,259.077v-25.593h7.875c2.25,0,4.262,0.506,6.038,1.521
		c1.775,1.014,3.161,2.454,4.157,4.323s1.494,3.993,1.494,6.372v1.178c0,2.38-0.489,4.494-1.468,6.347
		c-0.978,1.851-2.358,3.287-4.139,4.306c-1.782,1.021-3.791,1.536-6.03,1.547H620.879z M626.152,237.756v17.086h2.549
		c2.062,0,3.638-0.675,4.728-2.022c1.09-1.347,1.647-3.275,1.67-5.783v-1.353c0-2.603-0.539-4.574-1.617-5.915
		c-1.078-1.342-2.654-2.013-4.728-2.013H626.152z"/>
	<polygon clip-path="url(#SVGID_2_)" points="659.537,247.985 649.412,247.985 649.412,254.841 661.295,254.841 661.295,259.078 
		644.139,259.078 644.139,233.483 661.26,233.483 661.26,237.756 649.412,237.756 649.412,243.854 659.537,243.854 	"/>
	<rect x="673.688" y="233.484" clip-path="url(#SVGID_2_)" width="5.273" height="25.594"/>
	<polygon clip-path="url(#SVGID_2_)" points="704.592,259.077 699.319,259.077 689.053,242.237 689.053,259.077 683.78,259.077 
		683.78,233.483 689.053,233.483 699.336,250.358 699.336,233.483 704.592,233.483 	"/>
	<polygon clip-path="url(#SVGID_2_)" points="724.668,248.619 714.543,248.619 714.543,259.078 709.27,259.078 709.27,233.483 
		725.934,233.483 725.934,237.756 714.543,237.756 714.543,244.364 724.668,244.364 	"/>
	<path clip-path="url(#SVGID_2_)" d="M749.482,246.86c0,2.521-0.446,4.729-1.336,6.627c-0.891,1.899-2.165,3.363-3.823,4.396
		c-1.659,1.031-3.56,1.547-5.705,1.547c-2.121,0-4.013-0.51-5.677-1.53c-1.664-1.019-2.953-2.475-3.867-4.368
		c-0.915-1.893-1.377-4.068-1.389-6.529v-1.267c0-2.519,0.454-4.736,1.362-6.652c0.908-1.916,2.192-3.388,3.85-4.412
		c1.658-1.026,3.554-1.538,5.686-1.538c2.133,0,4.029,0.512,5.687,1.538c1.658,1.024,2.941,2.496,3.849,4.412
		c0.909,1.916,1.363,4.128,1.363,6.636V246.86z M744.139,245.701c0-2.685-0.48-4.724-1.441-6.117
		c-0.961-1.396-2.332-2.092-4.114-2.092c-1.769,0-3.134,0.688-4.095,2.064s-1.448,3.396-1.459,6.056v1.248
		c0,2.613,0.48,4.642,1.441,6.082c0.961,1.442,2.344,2.162,4.148,2.162c1.77,0,3.129-0.693,4.079-2.083
		c0.949-1.388,1.429-3.413,1.441-6.073V245.701z"/>
	<path clip-path="url(#SVGID_2_)" d="M762.725,249.708h-4.201v9.37h-5.273v-25.594h9.51c3.023,0,5.355,0.674,6.996,2.021
		c1.641,1.348,2.461,3.252,2.461,5.713c0,1.746-0.379,3.202-1.134,4.368c-0.756,1.166-1.901,2.095-3.437,2.787l5.537,10.459v0.246
		h-5.66L762.725,249.708z M758.523,245.437h4.254c1.324,0,2.35-0.337,3.076-1.011s1.09-1.602,1.09-2.786
		c0-1.207-0.343-2.155-1.028-2.848c-0.686-0.691-1.737-1.037-3.155-1.037h-4.236V245.437z"/>
	<polygon clip-path="url(#SVGID_2_)" points="783.018,233.484 789.592,252.046 796.131,233.484 803.057,233.484 803.057,259.078 
		797.766,259.078 797.766,252.082 798.293,240.005 791.385,259.078 787.764,259.078 780.873,240.022 781.4,252.082 781.4,259.078 
		776.127,259.078 776.127,233.484 	"/>
	<path clip-path="url(#SVGID_2_)" d="M822.137,253.804h-9.246l-1.758,5.274h-5.607l9.527-25.595h4.887l9.58,25.595h-5.607
		L822.137,253.804z M814.314,249.532h6.398l-3.217-9.579L814.314,249.532z"/>
	<path clip-path="url(#SVGID_2_)" d="M850.904,250.552c-0.199,2.755-1.216,4.923-3.05,6.505s-4.251,2.373-7.251,2.373
		c-3.281,0-5.862-1.105-7.743-3.314s-2.821-5.241-2.821-9.096v-1.565c0-2.461,0.434-4.629,1.301-6.504s2.106-3.313,3.718-4.315
		s3.483-1.503,5.616-1.503c2.953,0,5.332,0.791,7.137,2.373s2.848,3.804,3.129,6.662h-5.273c-0.129-1.651-0.589-2.85-1.38-3.594
		c-0.791-0.745-1.995-1.117-3.612-1.117c-1.758,0-3.073,0.63-3.946,1.891c-0.873,1.26-1.321,3.214-1.345,5.861v1.935
		c0,2.765,0.418,4.787,1.257,6.063c0.838,1.278,2.159,1.916,3.964,1.916c1.629,0,2.845-0.372,3.647-1.116s1.263-1.895,1.38-3.454
		H850.904z"/>
	<rect x="854.521" y="233.484" clip-path="url(#SVGID_2_)" width="5.272" height="25.594"/>
	<path clip-path="url(#SVGID_2_)" d="M885.488,246.86c0,2.521-0.445,4.729-1.336,6.627c-0.891,1.899-2.165,3.364-3.823,4.396
		c-1.658,1.03-3.56,1.547-5.704,1.547c-2.121,0-4.014-0.511-5.678-1.53c-1.664-1.019-2.953-2.475-3.867-4.368
		c-0.914-1.892-1.377-4.068-1.389-6.53v-1.266c0-2.519,0.454-4.737,1.362-6.653s2.191-3.387,3.85-4.412
		c1.658-1.024,3.554-1.537,5.687-1.537s4.028,0.513,5.687,1.537c1.658,1.025,2.941,2.496,3.85,4.412s1.362,4.128,1.362,6.637V246.86
		z M880.145,245.7c0-2.683-0.48-4.722-1.441-6.117c-0.961-1.394-2.332-2.092-4.113-2.092c-1.77,0-3.135,0.689-4.096,2.066
		s-1.447,3.395-1.459,6.055v1.248c0,2.614,0.48,4.641,1.441,6.082c0.961,1.442,2.344,2.163,4.148,2.163
		c1.77,0,3.129-0.695,4.078-2.083c0.949-1.389,1.43-3.414,1.441-6.074V245.7z M875.609,226.628h5.537l-4.869,5.449h-4.131
		L875.609,226.628z"/>
	<polygon clip-path="url(#SVGID_2_)" points="910.068,259.077 904.795,259.077 894.529,242.237 894.529,259.077 889.257,259.077 
		889.257,233.483 894.529,233.483 904.813,250.358 904.813,233.483 910.068,233.483 	"/>
	<path clip-path="url(#SVGID_2_)" d="M352.459,289.059v10.019h-3.375v-25.593h9.439c2.801,0,4.996,0.714,6.583,2.144
		c1.588,1.431,2.382,3.322,2.382,5.679c0,2.483-0.776,4.396-2.329,5.738c-1.553,1.343-3.776,2.014-6.671,2.014H352.459z
		 M352.459,286.298h6.064c1.805,0,3.188-0.425,4.149-1.275c0.961-0.852,1.441-2.081,1.441-3.69c0-1.525-0.48-2.747-1.441-3.662
		c-0.961-0.916-2.279-1.392-3.955-1.427h-6.258V286.298z"/>
	<path clip-path="url(#SVGID_2_)" d="M384.178,292.381h-10.723l-2.408,6.696h-3.48l9.773-25.594h2.953l9.791,25.594h-3.463
		L384.178,292.381z M374.475,289.62h8.701l-4.359-11.971L374.475,289.62z"/>
	<path clip-path="url(#SVGID_2_)" d="M403.367,288.725h-6.012v10.353h-3.393v-25.593h8.473c2.883,0,5.101,0.656,6.653,1.968
		c1.553,1.313,2.33,3.224,2.33,5.731c0,1.593-0.431,2.981-1.292,4.166c-0.862,1.183-2.06,2.067-3.595,2.653l6.012,10.863v0.211
		h-3.622L403.367,288.725z M397.354,285.965h5.186c1.675,0,3.008-0.435,3.999-1.304c0.99-0.869,1.485-2.03,1.485-3.486
		c0-1.585-0.472-2.801-1.415-3.646c-0.943-0.845-2.306-1.273-4.087-1.286h-5.168V285.965z"/>
	<path clip-path="url(#SVGID_2_)" d="M431.938,292.381h-10.723l-2.408,6.696h-3.48l9.773-25.594h2.953l9.791,25.594h-3.463
		L431.938,292.381z M422.235,289.62h8.701l-4.359-11.971L422.235,289.62z"/>
	<polygon clip-path="url(#SVGID_2_)" points="454.387,296.318 466.516,296.318 466.516,299.078 450.994,299.078 450.994,273.484 
		454.387,273.484 	"/>
	<path clip-path="url(#SVGID_2_)" d="M486.021,292.381h-10.723l-2.408,6.696h-3.48l9.773-25.594h2.953l9.791,25.594h-3.463
		L486.021,292.381z M476.317,289.62h8.701l-4.359-11.971L476.317,289.62z"/>
	<path clip-path="url(#SVGID_2_)" d="M514.463,288.725h-6.012v10.353h-3.393v-25.593h8.473c2.883,0,5.101,0.656,6.653,1.968
		c1.553,1.313,2.33,3.224,2.33,5.731c0,1.593-0.431,2.981-1.292,4.166c-0.862,1.183-2.06,2.067-3.595,2.653l6.012,10.863v0.211
		h-3.622L514.463,288.725z M508.451,285.965h5.186c1.675,0,3.008-0.435,3.999-1.304c0.99-0.869,1.485-2.03,1.485-3.486
		c0-1.585-0.472-2.801-1.415-3.646c-0.943-0.845-2.306-1.273-4.087-1.286h-5.168V285.965z"/>
	<polygon clip-path="url(#SVGID_2_)" points="542.076,287.248 530.984,287.248 530.984,296.317 543.869,296.317 543.869,299.077 
		527.609,299.077 527.609,273.483 543.693,273.483 543.693,276.243 530.984,276.243 530.984,284.487 542.076,284.487 	"/>
	<path clip-path="url(#SVGID_2_)" d="M566.517,295.72c-0.867,1.242-2.077,2.172-3.63,2.786c-1.553,0.615-3.36,0.924-5.423,0.924
		c-2.086,0-3.937-0.489-5.554-1.469c-1.618-0.978-2.869-2.37-3.753-4.175c-0.885-1.804-1.339-3.896-1.363-6.275v-2.231
		c0-3.856,0.9-6.844,2.699-8.965c1.798-2.121,4.327-3.183,7.585-3.183c2.671,0,4.822,0.684,6.451,2.049
		c1.629,1.364,2.625,3.302,2.988,5.81h-3.375c-0.633-3.399-2.648-5.098-6.047-5.098c-2.262,0-3.975,0.795-5.141,2.384
		s-1.755,3.891-1.767,6.905v2.094c0,2.873,0.656,5.157,1.969,6.852c1.312,1.695,3.088,2.542,5.326,2.542
		c1.265,0,2.373-0.14,3.322-0.421c0.949-0.28,1.734-0.754,2.356-1.42v-5.735h-5.924v-2.76h9.281V295.72z"/>
	<rect x="572.388" y="273.484" clip-path="url(#SVGID_2_)" width="3.375" height="25.594"/>
	<path clip-path="url(#SVGID_2_)" d="M601.674,287.107c0,2.507-0.421,4.696-1.265,6.564c-0.844,1.869-2.039,3.297-3.586,4.28
		c-1.547,0.985-3.352,1.478-5.414,1.478c-2.016,0-3.803-0.495-5.362-1.485c-1.558-0.991-2.768-2.403-3.629-4.237
		c-0.862-1.834-1.304-3.958-1.328-6.372v-1.846c0-2.46,0.428-4.634,1.284-6.521c0.855-1.888,2.065-3.331,3.63-4.333
		c1.564-1.003,3.354-1.504,5.37-1.504c2.05,0,3.858,0.495,5.423,1.485c1.564,0.991,2.768,2.426,3.612,4.307
		c0.844,1.882,1.265,4.069,1.265,6.565V287.107z M598.317,285.454c0-3.035-0.609-5.364-1.828-6.986
		c-1.219-1.623-2.924-2.436-5.115-2.436c-2.133,0-3.812,0.813-5.036,2.436c-1.225,1.622-1.855,3.876-1.89,6.759v1.881
		c0,2.94,0.618,5.253,1.854,6.934c1.237,1.683,2.939,2.523,5.107,2.523c2.179,0,3.867-0.794,5.062-2.382
		c1.196-1.588,1.811-3.864,1.846-6.829V285.454z M593.026,266.594h3.938l-4.711,5.168l-2.62-0.01L593.026,266.594z"/>
	<polygon clip-path="url(#SVGID_2_)" points="626.521,299.077 623.128,299.077 610.245,279.354 610.245,299.077 606.852,299.077 
		606.852,273.483 610.245,273.483 623.165,293.295 623.165,273.483 626.521,273.483 	"/>
	<path clip-path="url(#SVGID_2_)" d="M656.353,292.381h-10.723l-2.408,6.696h-3.48l9.773-25.594h2.953l9.791,25.594h-3.463
		L656.353,292.381z M646.649,289.62h8.701l-4.359-11.971L646.649,289.62z"/>
	<polygon clip-path="url(#SVGID_2_)" points="685.824,299.077 682.431,299.077 669.547,279.354 669.547,299.077 666.154,299.077 
		666.154,273.483 669.547,273.483 682.467,293.295 682.467,273.483 685.824,273.483 	"/>
	<path clip-path="url(#SVGID_2_)" d="M691.919,299.078v-25.595h7.225c2.226,0,4.195,0.492,5.906,1.478
		c1.711,0.983,3.032,2.385,3.964,4.201c0.931,1.815,1.403,3.901,1.415,6.258v1.635c0,2.414-0.466,4.529-1.398,6.345
		c-0.931,1.817-2.261,3.211-3.99,4.185c-1.728,0.972-3.741,1.471-6.038,1.494H691.919z M695.294,276.244v20.073h3.551
		c2.601,0,4.626-0.809,6.073-2.428c1.447-1.618,2.171-3.923,2.171-6.914v-1.496c0-2.908-0.683-5.169-2.048-6.782
		c-1.365-1.611-3.302-2.431-5.809-2.453H695.294z"/>
	<rect x="715.654" y="273.484" clip-path="url(#SVGID_2_)" width="3.375" height="25.594"/>
	<polygon clip-path="url(#SVGID_2_)" points="744.895,299.077 741.501,299.077 728.617,279.354 728.617,299.077 725.225,299.077 
		725.225,273.483 728.617,273.483 741.538,293.295 741.538,273.483 744.895,273.483 	"/>
	<path clip-path="url(#SVGID_2_)" d="M765.425,292.381h-10.724l-2.407,6.696h-3.48l9.773-25.594h2.953l9.791,25.594h-3.464
		L765.425,292.381z M755.722,289.62h8.701l-4.359-11.971L755.722,289.62z"/>
</g>
</svg>
