<?xml version="1.0" encoding="utf-8"?>
<!-- Generator: Adobe Illustrator 15.1.0, SVG Export Plug-In . SVG Version: 6.00 Build 0)  -->
<!DOCTYPE svg PUBLIC "-//W3C//DTD SVG 1.1//EN" "http://www.w3.org/Graphics/SVG/1.1/DTD/svg11.dtd">
<svg version="1.1" id="Ebene_1" xmlns="http://www.w3.org/2000/svg" xmlns:xlink="http://www.w3.org/1999/xlink" x="0px" y="0px"
	 width="1500px" height="360px" viewBox="0 0 1500 360" enable-background="new 0 0 1500 360" xml:space="preserve">
<g>
	<defs>
		<rect id="SVGID_1_" width="1500" height="360"/>
	</defs>
	<clipPath id="SVGID_2_">
		<use xlink:href="#SVGID_1_"  overflow="visible"/>
	</clipPath>
	<path clip-path="url(#SVGID_2_)" d="M170.653,48.549c6.151,0,12.303,2.333,16.97,7l107.479,107.48
		c9.334,9.334,9.334,24.608,0,33.942l-107.479,107.48c-4.667,4.667-10.819,7-16.97,7c-6.152,0-12.304-2.333-16.971-7l-107.48-107.48
		c-9.334-9.334-9.334-24.608,0-33.942l107.48-107.48C158.349,50.882,164.501,48.549,170.653,48.549 M170.653,29.349
		c-11.559,0-22.407,4.483-30.547,12.624L32.625,149.453c-8.14,8.141-12.623,18.989-12.623,30.547
		c0,11.558,4.483,22.406,12.623,30.547l107.481,107.48c8.14,8.141,18.989,12.624,30.547,12.624s22.406-4.483,30.547-12.624
		l107.48-107.48c8.141-8.141,12.624-18.989,12.624-30.547c0-11.558-4.483-22.406-12.624-30.547L201.2,41.973
		C193.059,33.832,182.211,29.349,170.653,29.349 M65.571,183.337c-2.138,0-3.208,2.585-1.697,4.097l103.385,103.412
		c1.197,1.198,2.64,1.392,3.394,1.392c0.753,0,2.196-0.172,3.394-1.37L277.432,187.43c1.512-1.511,0.441-4.096-1.697-4.096
		L65.571,183.337z"/>
	<path clip-path="url(#SVGID_2_)" d="M377.899,132.728h-9.277v25.146h-17.139V86.779h27.979c8.431,0,15.022,1.87,19.775,5.61
		c4.753,3.739,7.129,9.023,7.129,15.852c0,4.943-1.001,9.04-3.003,12.291c-2.002,3.252-5.135,5.887-9.399,7.903l14.844,28.705v0.733
		h-18.36L377.899,132.728z M368.623,119.543h10.84c3.255,0,5.704-0.856,7.348-2.569c1.644-1.714,2.466-4.105,2.466-7.172
		c0-3.068-0.83-5.474-2.49-7.22c-1.66-1.745-4.101-2.619-7.324-2.619h-10.84V119.543z"/>
	<rect x="416.16" y="86.78" clip-path="url(#SVGID_2_)" width="17.09" height="71.094"/>
	<polygon clip-path="url(#SVGID_2_)" points="488.736,127.698 461.783,127.698 461.783,144.69 493.619,144.69 493.619,157.874 
		444.644,157.874 444.644,86.78 493.716,86.78 493.716,100.012 461.783,100.012 461.783,115.003 488.736,115.003 	"/>
	<path clip-path="url(#SVGID_2_)" d="M536.511,138.977c0-2.506-0.887-4.459-2.661-5.859c-1.775-1.4-4.891-2.848-9.351-4.346
		c-4.46-1.497-8.105-2.945-10.937-4.346c-9.213-4.524-13.819-10.742-13.819-18.652c0-3.939,1.148-7.413,3.443-10.425
		c2.295-3.011,5.542-5.354,9.741-7.031c4.199-1.676,8.919-2.515,14.16-2.515c5.111,0,9.693,0.912,13.745,2.735
		c4.053,1.823,7.202,4.418,9.449,7.788c2.246,3.369,3.369,7.218,3.369,11.547h-17.09c0-2.896-0.887-5.142-2.661-6.738
		c-1.775-1.595-4.175-2.392-7.202-2.392c-3.061,0-5.478,0.675-7.251,2.026c-1.775,1.352-2.662,3.068-2.662,5.151
		c0,1.824,0.977,3.476,2.93,4.956c1.953,1.482,5.387,3.012,10.303,4.59c4.915,1.579,8.952,3.281,12.109,5.103
		c7.682,4.428,11.524,10.531,11.524,18.31c0,6.218-2.344,11.101-7.032,14.649c-4.687,3.549-11.116,5.322-19.287,5.322
		c-5.761,0-10.978-1.033-15.649-3.101c-4.671-2.066-8.187-4.898-10.547-8.496c-2.36-3.596-3.54-7.739-3.54-12.426h17.187
		c0,3.808,0.985,6.616,2.955,8.422c1.969,1.807,5.167,2.71,9.594,2.71c2.832,0,5.07-0.61,6.714-1.831
		C535.689,142.908,536.511,141.191,536.511,138.977"/>
	<path clip-path="url(#SVGID_2_)" d="M619.092,149.084c-2.637,2.93-6.494,5.29-11.572,7.08c-5.078,1.79-10.645,2.686-16.699,2.686
		c-9.311,0-16.749-2.848-22.315-8.545c-5.566-5.697-8.545-13.623-8.935-23.78l-0.049-6.152c0-6.998,1.237-13.11,3.711-18.335
		c2.473-5.225,6.013-9.244,10.62-12.06c4.606-2.816,9.936-4.224,15.991-4.224c8.854,0,15.73,2.026,20.63,6.079
		c4.899,4.053,7.755,10.1,8.569,18.14h-16.504c-0.586-3.971-1.855-6.803-3.808-8.496c-1.953-1.693-4.721-2.539-8.301-2.539
		c-4.297,0-7.617,1.823-9.961,5.468c-2.344,3.647-3.532,8.855-3.565,15.625v4.297c0,7.097,1.213,12.427,3.638,15.991
		c2.425,3.565,6.242,5.347,11.45,5.347c4.46,0,7.78-0.992,9.961-2.978v-11.036h-11.914v-11.767h29.053V149.084z"/>
	<path clip-path="url(#SVGID_2_)" d="M688.458,123.792c0,6.933-1.286,13.07-3.858,18.408c-2.572,5.339-6.225,9.448-10.962,12.329
		c-4.736,2.881-10.132,4.321-16.187,4.321c-6.055,0-11.426-1.391-16.113-4.175c-4.688-2.783-8.342-6.762-10.962-11.938
		c-2.621-5.176-3.997-11.116-4.126-17.822v-4.004c0-6.966,1.277-13.111,3.833-18.433c2.555-5.322,6.217-9.432,10.986-12.329
		s10.197-4.346,16.284-4.346c6.022,0,11.393,1.433,16.113,4.297c4.72,2.865,8.391,6.942,11.011,12.232s3.947,11.352,3.98,18.188
		V123.792z M671.026,120.813c0-7.063-1.18-12.427-3.54-16.089s-5.737-5.493-10.132-5.493c-8.594,0-13.135,6.445-13.623,19.336
		l-0.049,5.225c0,6.966,1.156,12.321,3.467,16.064c2.311,3.744,5.745,5.615,10.303,5.615c4.329,0,7.666-1.839,10.01-5.517
		c2.343-3.678,3.531-8.968,3.564-15.87V120.813z"/>
	<path clip-path="url(#SVGID_2_)" d="M732.446,138.977c0-2.506-0.887-4.459-2.661-5.859c-1.775-1.4-4.891-2.848-9.351-4.346
		c-4.46-1.497-8.105-2.945-10.937-4.346c-9.213-4.524-13.819-10.742-13.819-18.652c0-3.939,1.148-7.413,3.443-10.425
		c2.295-3.011,5.542-5.354,9.741-7.031c4.199-1.676,8.919-2.515,14.16-2.515c5.111,0,9.693,0.912,13.745,2.735
		c4.053,1.823,7.202,4.418,9.449,7.788c2.246,3.369,3.369,7.218,3.369,11.547h-17.09c0-2.896-0.887-5.142-2.661-6.738
		c-1.775-1.595-4.175-2.392-7.202-2.392c-3.061,0-5.478,0.675-7.251,2.026c-1.775,1.352-2.662,3.068-2.662,5.151
		c0,1.824,0.977,3.476,2.93,4.956c1.953,1.482,5.387,3.012,10.303,4.59c4.915,1.579,8.952,3.281,12.109,5.103
		c7.682,4.428,11.524,10.531,11.524,18.31c0,6.218-2.344,11.101-7.032,14.649c-4.687,3.549-11.116,5.322-19.287,5.322
		c-5.761,0-10.978-1.033-15.649-3.101c-4.671-2.066-8.187-4.898-10.547-8.496c-2.36-3.596-3.54-7.739-3.54-12.426h17.187
		c0,3.808,0.985,6.616,2.955,8.422c1.969,1.807,5.167,2.71,9.594,2.71c2.832,0,5.07-0.61,6.714-1.831
		C731.624,142.908,732.446,141.191,732.446,138.977"/>
	<polygon clip-path="url(#SVGID_2_)" points="355.289,193.484 361.863,212.046 368.402,193.484 375.328,193.484 375.328,219.078 
		370.037,219.078 370.037,212.082 370.564,200.005 363.656,219.078 360.035,219.078 353.144,200.022 353.672,212.082 
		353.672,219.078 348.398,219.078 348.398,193.484 	"/>
	<path clip-path="url(#SVGID_2_)" d="M399.463,193.484v16.856c0,2.801-0.876,5.016-2.628,6.646
		c-1.752,1.629-4.145,2.442-7.181,2.442c-2.988,0-5.361-0.791-7.119-2.373c-1.758-1.582-2.654-3.756-2.689-6.521v-17.051h5.273
		v16.893c0,1.675,0.402,2.896,1.204,3.665c0.803,0.767,1.913,1.151,3.331,1.151c2.965,0,4.471-1.56,4.518-4.677v-17.032H399.463z"/>
	<polygon clip-path="url(#SVGID_2_)" points="409.229,214.841 420.426,214.841 420.426,219.077 403.957,219.077 403.957,193.484 
		409.229,193.484 	"/>
	<polygon clip-path="url(#SVGID_2_)" points="439.231,197.756 431.392,197.756 431.392,219.077 426.118,219.077 426.118,197.756 
		418.383,197.756 418.383,193.484 439.231,193.484 	"/>
	<rect x="442.136" y="193.484" clip-path="url(#SVGID_2_)" width="5.273" height="25.594"/>
	<rect x="451.934" y="206.07" clip-path="url(#SVGID_2_)" width="9.896" height="4.096"/>
	<path clip-path="url(#SVGID_2_)" d="M475.753,209.708h-4.201v9.37h-5.273v-25.594h9.509c3.024,0,5.356,0.674,6.996,2.021
		c1.641,1.348,2.461,3.252,2.461,5.713c0,1.746-0.378,3.202-1.133,4.368c-0.756,1.166-1.902,2.095-3.437,2.787l5.537,10.459v0.246
		h-5.66L475.753,209.708z M471.552,205.437h4.254c1.324,0,2.35-0.337,3.076-1.011c0.727-0.674,1.09-1.602,1.09-2.786
		c0-1.207-0.343-2.155-1.028-2.848c-0.686-0.691-1.738-1.037-3.156-1.037h-4.236V205.437z"/>
	<rect x="489.303" y="193.484" clip-path="url(#SVGID_2_)" width="5.273" height="25.594"/>
	<path clip-path="url(#SVGID_2_)" d="M512.46,212.363c0-0.996-0.352-1.762-1.055-2.295c-0.703-0.532-1.968-1.096-3.797-1.687
		c-1.828-0.592-3.275-1.175-4.341-1.749c-2.907-1.571-4.36-3.686-4.36-6.346c0-1.384,0.39-2.616,1.169-3.7
		c0.78-1.084,1.899-1.931,3.358-2.54c1.459-0.61,3.096-0.914,4.913-0.914c1.828,0,3.457,0.331,4.886,0.993
		c1.43,0.662,2.54,1.596,3.331,2.803c0.792,1.207,1.187,2.579,1.187,4.114h-5.273c0-1.172-0.37-2.083-1.108-2.734
		c-0.738-0.649-1.775-0.975-3.111-0.975c-1.289,0-2.291,0.271-3.006,0.816s-1.072,1.264-1.072,2.153c0,0.832,0.419,1.53,1.257,2.092
		c0.837,0.563,2.071,1.09,3.7,1.582c3,0.903,5.185,2.022,6.556,3.358c1.371,1.336,2.057,3,2.057,4.992
		c0,2.215-0.838,3.952-2.514,5.212c-1.675,1.26-3.931,1.889-6.767,1.889c-1.969,0-3.762-0.36-5.379-1.081
		c-1.617-0.72-2.851-1.708-3.7-2.962c-0.85-1.253-1.275-2.707-1.275-4.359h5.291c0,2.824,1.688,4.236,5.063,4.236
		c1.254,0,2.232-0.254,2.935-0.764C512.108,213.989,512.46,213.276,512.46,212.363"/>
	<rect x="521.607" y="193.484" clip-path="url(#SVGID_2_)" width="5.273" height="25.594"/>
	<polygon clip-path="url(#SVGID_2_)" points="539.714,208.812 536.972,211.765 536.972,219.078 531.698,219.078 531.698,193.484 
		536.972,193.484 536.972,205.085 539.292,201.904 545.814,193.484 552.3,193.484 543.212,204.857 552.564,219.078 546.288,219.078 
			"/>
	<path clip-path="url(#SVGID_2_)" d="M574.277,206.86c0,2.521-0.446,4.729-1.336,6.627c-0.891,1.899-2.165,3.363-3.823,4.396
		c-1.659,1.031-3.56,1.547-5.705,1.547c-2.121,0-4.013-0.51-5.677-1.53c-1.664-1.019-2.953-2.475-3.867-4.368
		c-0.915-1.893-1.377-4.068-1.389-6.529v-1.267c0-2.519,0.454-4.736,1.362-6.652c0.908-1.916,2.192-3.388,3.85-4.412
		c1.658-1.026,3.554-1.538,5.686-1.538c2.133,0,4.029,0.512,5.687,1.538c1.658,1.024,2.941,2.496,3.849,4.412
		c0.909,1.916,1.363,4.128,1.363,6.636V206.86z M568.934,205.701c0-2.685-0.48-4.724-1.441-6.117
		c-0.961-1.396-2.332-2.092-4.114-2.092c-1.769,0-3.134,0.688-4.095,2.064s-1.448,3.396-1.459,6.056v1.248
		c0,2.613,0.48,4.642,1.441,6.082c0.961,1.442,2.344,2.162,4.148,2.162c1.77,0,3.129-0.693,4.079-2.083
		c0.949-1.388,1.429-3.413,1.441-6.073V205.701z"/>
	<path clip-path="url(#SVGID_2_)" d="M601.523,213.804h-9.246l-1.758,5.274h-5.607l9.527-25.595h4.887l9.58,25.595h-5.607
		L601.523,213.804z M593.701,209.532h6.398l-3.216-9.579L593.701,209.532z"/>
	<polygon clip-path="url(#SVGID_2_)" points="632.156,219.077 626.883,219.077 616.617,202.237 616.617,219.077 611.344,219.077 
		611.344,193.483 616.617,193.483 626.9,210.358 626.9,193.483 632.156,193.483 	"/>
	<path clip-path="url(#SVGID_2_)" d="M651.236,213.804h-9.246l-1.758,5.274h-5.607l9.527-25.595h4.887l9.58,25.595h-5.607
		L651.236,213.804z M643.414,209.532h6.398l-3.216-9.579L643.414,209.532z"/>
	<polygon clip-path="url(#SVGID_2_)" points="666.33,214.841 677.527,214.841 677.527,219.077 661.057,219.077 661.057,193.484 
		666.33,193.484 	"/>
	<polygon clip-path="url(#SVGID_2_)" points="685.891,205.015 691.217,193.484 696.982,193.484 688.58,209.796 688.58,219.078 
		683.219,219.078 683.219,209.796 674.816,193.484 680.6,193.484 	"/>
	<path clip-path="url(#SVGID_2_)" d="M711.623,212.363c0-0.996-0.352-1.762-1.055-2.295c-0.703-0.532-1.968-1.096-3.797-1.687
		c-1.828-0.592-3.275-1.175-4.341-1.749c-2.907-1.571-4.36-3.686-4.36-6.346c0-1.384,0.39-2.616,1.169-3.7
		c0.78-1.084,1.899-1.931,3.358-2.54c1.459-0.61,3.096-0.914,4.913-0.914c1.828,0,3.457,0.331,4.886,0.993
		c1.43,0.662,2.54,1.596,3.331,2.803c0.792,1.207,1.187,2.579,1.187,4.114h-5.273c0-1.172-0.37-2.083-1.108-2.734
		c-0.738-0.649-1.775-0.975-3.111-0.975c-1.289,0-2.291,0.271-3.006,0.816s-1.072,1.264-1.072,2.153c0,0.832,0.419,1.53,1.257,2.092
		c0.837,0.563,2.071,1.09,3.7,1.582c3,0.903,5.185,2.022,6.556,3.358s2.057,3,2.057,4.992c0,2.215-0.838,3.952-2.514,5.212
		c-1.675,1.26-3.931,1.889-6.767,1.889c-1.969,0-3.762-0.36-5.379-1.081c-1.617-0.72-2.851-1.708-3.7-2.962
		c-0.85-1.253-1.275-2.707-1.275-4.359h5.291c0,2.824,1.688,4.236,5.063,4.236c1.254,0,2.232-0.254,2.935-0.764
		S711.623,213.276,711.623,212.363"/>
	<polygon clip-path="url(#SVGID_2_)" points="735.96,207.951 725.835,207.951 725.835,214.842 737.718,214.842 737.718,219.078 
		720.562,219.078 720.562,193.483 737.683,193.483 737.683,197.756 725.835,197.756 725.835,203.854 735.96,203.854 	"/>
	<path clip-path="url(#SVGID_2_)" d="M769.147,193.484v16.856c0,2.801-0.876,5.016-2.628,6.646
		c-1.752,1.629-4.145,2.442-7.181,2.442c-2.988,0-5.361-0.791-7.119-2.373s-2.654-3.756-2.689-6.521v-17.051h5.273v16.893
		c0,1.675,0.401,2.896,1.204,3.665c0.803,0.767,1.913,1.151,3.331,1.151c2.965,0,4.471-1.56,4.518-4.677v-17.032H769.147z"/>
	<polygon clip-path="url(#SVGID_2_)" points="794.453,219.077 789.18,219.077 778.914,202.237 778.914,219.077 773.641,219.077 
		773.641,193.483 778.914,193.483 789.197,210.358 789.197,193.483 794.453,193.483 	"/>
	<path clip-path="url(#SVGID_2_)" d="M799.131,219.077v-25.593h7.875c2.25,0,4.263,0.506,6.038,1.521
		c1.775,1.014,3.161,2.454,4.157,4.323s1.494,3.993,1.494,6.372v1.178c0,2.38-0.489,4.494-1.468,6.347
		c-0.979,1.851-2.358,3.287-4.14,4.306c-1.781,1.021-3.791,1.536-6.029,1.547H799.131z M804.404,197.756v17.086h2.549
		c2.063,0,3.638-0.675,4.729-2.022c1.09-1.347,1.646-3.275,1.67-5.783v-1.353c0-2.603-0.539-4.574-1.617-5.915
		c-1.078-1.342-2.654-2.013-4.729-2.013H804.404z"/>
	<rect x="348.733" y="233.484" clip-path="url(#SVGID_2_)" width="5.273" height="25.594"/>
	<polygon clip-path="url(#SVGID_2_)" points="379.637,259.077 374.364,259.077 364.098,242.237 364.098,259.077 358.825,259.077 
		358.825,233.483 364.098,233.483 374.381,250.358 374.381,233.483 379.637,233.483 	"/>
	<polygon clip-path="url(#SVGID_2_)" points="399.713,248.619 389.588,248.619 389.588,259.078 384.315,259.078 384.315,233.483 
		400.979,233.483 400.979,237.756 389.588,237.756 389.588,244.364 399.713,244.364 	"/>
	<path clip-path="url(#SVGID_2_)" d="M424.527,246.86c0,2.521-0.446,4.729-1.336,6.627c-0.891,1.899-2.165,3.363-3.823,4.396
		c-1.659,1.031-3.56,1.547-5.705,1.547c-2.121,0-4.013-0.51-5.677-1.53c-1.664-1.019-2.953-2.475-3.867-4.368
		c-0.915-1.893-1.377-4.068-1.389-6.529v-1.267c0-2.519,0.454-4.736,1.362-6.652c0.908-1.916,2.192-3.388,3.85-4.412
		c1.658-1.026,3.554-1.538,5.686-1.538c2.133,0,4.029,0.512,5.687,1.538c1.658,1.024,2.941,2.496,3.849,4.412
		c0.909,1.916,1.363,4.128,1.363,6.636V246.86z M419.184,245.701c0-2.685-0.48-4.724-1.441-6.117
		c-0.961-1.396-2.332-2.092-4.114-2.092c-1.769,0-3.134,0.688-4.095,2.064s-1.448,3.396-1.459,6.056v1.248
		c0,2.613,0.48,4.642,1.441,6.082c0.961,1.442,2.344,2.162,4.148,2.162c1.77,0,3.129-0.693,4.079-2.083
		c0.949-1.388,1.429-3.413,1.441-6.073V245.701z"/>
	<path clip-path="url(#SVGID_2_)" d="M437.77,249.708h-4.201v9.37h-5.273v-25.594h9.509c3.024,0,5.356,0.674,6.996,2.021
		c1.641,1.348,2.461,3.252,2.461,5.713c0,1.746-0.378,3.202-1.133,4.368c-0.756,1.166-1.902,2.095-3.437,2.787l5.537,10.459v0.246
		h-5.66L437.77,249.708z M433.568,245.437h4.254c1.324,0,2.35-0.337,3.076-1.011c0.727-0.674,1.09-1.602,1.09-2.786
		c0-1.207-0.343-2.155-1.028-2.848c-0.686-0.691-1.738-1.037-3.156-1.037h-4.236V245.437z"/>
	<polygon clip-path="url(#SVGID_2_)" points="458.063,233.484 464.637,252.046 471.175,233.484 478.102,233.484 478.102,259.078 
		472.811,259.078 472.811,252.082 473.337,240.005 466.43,259.078 462.809,259.078 455.917,240.022 456.445,252.082 
		456.445,259.078 451.171,259.078 451.171,233.484 	"/>
	<path clip-path="url(#SVGID_2_)" d="M497.182,253.804h-9.246l-1.758,5.274h-5.607l9.527-25.595h4.887l9.58,25.595h-5.607
		L497.182,253.804z M489.359,249.532h6.398l-3.216-9.579L489.359,249.532z"/>
	<polygon clip-path="url(#SVGID_2_)" points="523.067,237.756 515.228,237.756 515.228,259.077 509.955,259.077 509.955,237.756 
		502.219,237.756 502.219,233.484 523.067,233.484 	"/>
	<rect x="525.972" y="233.484" clip-path="url(#SVGID_2_)" width="5.273" height="25.594"/>
	<path clip-path="url(#SVGID_2_)" d="M556.938,246.86c0,2.521-0.446,4.729-1.336,6.627c-0.891,1.899-2.165,3.363-3.823,4.396
		c-1.659,1.031-3.56,1.547-5.705,1.547c-2.121,0-4.013-0.51-5.677-1.53c-1.664-1.019-2.953-2.475-3.867-4.368
		c-0.915-1.893-1.377-4.068-1.389-6.529v-1.267c0-2.519,0.454-4.736,1.362-6.652c0.908-1.916,2.192-3.388,3.85-4.412
		c1.658-1.026,3.554-1.538,5.686-1.538c2.133,0,4.029,0.512,5.687,1.538c1.658,1.024,2.941,2.496,3.849,4.412
		c0.909,1.916,1.363,4.128,1.363,6.636V246.86z M551.595,245.701c0-2.685-0.48-4.724-1.441-6.117
		c-0.961-1.396-2.332-2.092-4.114-2.092c-1.769,0-3.134,0.688-4.095,2.064s-1.448,3.396-1.459,6.056v1.248
		c0,2.613,0.48,4.642,1.441,6.082c0.961,1.442,2.344,2.162,4.148,2.162c1.77,0,3.129-0.693,4.079-2.083
		c0.949-1.388,1.429-3.413,1.441-6.073V245.701z"/>
	<polygon clip-path="url(#SVGID_2_)" points="581.519,259.077 576.246,259.077 565.979,242.237 565.979,259.077 560.707,259.077 
		560.707,233.483 565.979,233.483 576.263,250.358 576.263,233.483 581.519,233.483 	"/>
	<path clip-path="url(#SVGID_2_)" d="M599.28,252.363c0-0.996-0.352-1.762-1.055-2.295c-0.703-0.532-1.968-1.096-3.797-1.687
		c-1.828-0.592-3.275-1.175-4.341-1.749c-2.907-1.571-4.36-3.686-4.36-6.346c0-1.384,0.39-2.616,1.169-3.7
		c0.78-1.084,1.899-1.931,3.358-2.54c1.459-0.61,3.096-0.914,4.913-0.914c1.828,0,3.457,0.331,4.886,0.993
		c1.43,0.662,2.54,1.596,3.331,2.803c0.792,1.207,1.187,2.579,1.187,4.114h-5.273c0-1.172-0.37-2.083-1.108-2.734
		c-0.738-0.649-1.775-0.975-3.111-0.975c-1.289,0-2.291,0.271-3.006,0.816s-1.072,1.264-1.072,2.153c0,0.832,0.419,1.53,1.257,2.092
		c0.837,0.563,2.071,1.09,3.7,1.582c3,0.903,5.185,2.022,6.556,3.358s2.057,3,2.057,4.992c0,2.215-0.838,3.952-2.514,5.212
		c-1.675,1.26-3.931,1.889-6.767,1.889c-1.969,0-3.762-0.36-5.379-1.081c-1.617-0.72-2.851-1.708-3.7-2.962
		c-0.85-1.253-1.275-2.707-1.275-4.359h5.291c0,2.824,1.688,4.236,5.063,4.236c1.254,0,2.232-0.254,2.935-0.764
		C598.928,253.989,599.28,253.276,599.28,252.363"/>
	<path clip-path="url(#SVGID_2_)" d="M621.404,252.363c0-0.996-0.352-1.762-1.055-2.295c-0.703-0.532-1.968-1.096-3.797-1.687
		c-1.828-0.592-3.275-1.175-4.341-1.749c-2.907-1.571-4.36-3.686-4.36-6.346c0-1.384,0.39-2.616,1.169-3.7
		c0.78-1.084,1.899-1.931,3.358-2.54c1.459-0.61,3.096-0.914,4.913-0.914c1.828,0,3.457,0.331,4.886,0.993
		c1.43,0.662,2.54,1.596,3.331,2.803c0.792,1.207,1.187,2.579,1.187,4.114h-5.273c0-1.172-0.37-2.083-1.108-2.734
		c-0.738-0.649-1.775-0.975-3.111-0.975c-1.289,0-2.291,0.271-3.006,0.816s-1.072,1.264-1.072,2.153c0,0.832,0.419,1.53,1.257,2.092
		c0.837,0.563,2.071,1.09,3.7,1.582c3,0.903,5.185,2.022,6.556,3.358s2.057,3,2.057,4.992c0,2.215-0.838,3.952-2.514,5.212
		c-1.675,1.26-3.931,1.889-6.767,1.889c-1.969,0-3.762-0.36-5.379-1.081c-1.617-0.72-2.851-1.708-3.7-2.962
		c-0.85-1.253-1.275-2.707-1.275-4.359h5.291c0,2.824,1.688,4.236,5.063,4.236c1.254,0,2.232-0.254,2.935-0.764
		C621.052,253.989,621.404,253.276,621.404,252.363"/>
	<polygon clip-path="url(#SVGID_2_)" points="638.39,245.015 643.716,233.484 649.481,233.484 641.079,249.796 641.079,259.078 
		635.718,259.078 635.718,249.796 627.315,233.484 633.099,233.484 	"/>
	<path clip-path="url(#SVGID_2_)" d="M664.122,252.363c0-0.996-0.352-1.762-1.055-2.295c-0.703-0.532-1.968-1.096-3.797-1.687
		c-1.828-0.592-3.275-1.175-4.341-1.749c-2.907-1.571-4.36-3.686-4.36-6.346c0-1.384,0.39-2.616,1.169-3.7
		c0.78-1.084,1.899-1.931,3.358-2.54c1.459-0.61,3.096-0.914,4.913-0.914c1.828,0,3.457,0.331,4.886,0.993
		c1.43,0.662,2.54,1.596,3.331,2.803c0.792,1.207,1.187,2.579,1.187,4.114h-5.273c0-1.172-0.37-2.083-1.108-2.734
		c-0.738-0.649-1.775-0.975-3.111-0.975c-1.289,0-2.291,0.271-3.006,0.816s-1.072,1.264-1.072,2.153c0,0.832,0.419,1.53,1.257,2.092
		c0.837,0.563,2.071,1.09,3.7,1.582c3,0.903,5.185,2.022,6.556,3.358s2.057,3,2.057,4.992c0,2.215-0.838,3.952-2.514,5.212
		c-1.675,1.26-3.931,1.889-6.767,1.889c-1.969,0-3.762-0.36-5.379-1.081c-1.617-0.72-2.851-1.708-3.7-2.962
		c-0.85-1.253-1.275-2.707-1.275-4.359h5.291c0,2.824,1.688,4.236,5.063,4.236c1.254,0,2.232-0.254,2.935-0.764
		C663.77,253.989,664.122,253.276,664.122,252.363"/>
	<polygon clip-path="url(#SVGID_2_)" points="692.24,237.756 684.4,237.756 684.4,259.077 679.127,259.077 679.127,237.756 
		671.392,237.756 671.392,233.484 692.24,233.484 	"/>
	<polygon clip-path="url(#SVGID_2_)" points="710.378,247.951 700.253,247.951 700.253,254.842 712.136,254.842 712.136,259.078 
		694.98,259.078 694.98,233.483 712.101,233.483 712.101,237.756 700.253,237.756 700.253,243.854 710.378,243.854 	"/>
	<polygon clip-path="url(#SVGID_2_)" points="722.447,233.484 729.021,252.046 735.561,233.484 742.486,233.484 742.486,259.078 
		737.195,259.078 737.195,252.082 737.722,240.005 730.814,259.078 727.193,259.078 720.302,240.022 720.83,252.082 720.83,259.078 
		715.556,259.078 715.556,233.484 	"/>
	<polygon clip-path="url(#SVGID_2_)" points="755.18,248.812 752.438,251.765 752.438,259.078 747.164,259.078 747.164,233.484 
		752.438,233.484 752.438,245.085 754.758,241.904 761.279,233.484 767.766,233.484 758.678,244.857 768.029,259.078 
		761.754,259.078 	"/>
	<path clip-path="url(#SVGID_2_)" d="M789.743,246.86c0,2.521-0.446,4.729-1.336,6.627c-0.891,1.899-2.165,3.363-3.823,4.396
		c-1.658,1.031-3.56,1.547-5.705,1.547c-2.12,0-4.013-0.51-5.677-1.53c-1.664-1.019-2.953-2.475-3.867-4.368
		c-0.915-1.893-1.377-4.068-1.389-6.529v-1.267c0-2.519,0.454-4.736,1.362-6.652s2.191-3.388,3.85-4.412
		c1.658-1.026,3.555-1.538,5.687-1.538c2.133,0,4.028,0.512,5.687,1.538c1.658,1.024,2.941,2.496,3.85,4.412
		s1.362,4.128,1.362,6.636V246.86z M784.399,245.701c0-2.685-0.48-4.724-1.441-6.117c-0.961-1.396-2.332-2.092-4.113-2.092
		c-1.77,0-3.135,0.688-4.096,2.064s-1.447,3.396-1.459,6.056v1.248c0,2.613,0.48,4.642,1.441,6.082
		c0.961,1.442,2.344,2.162,4.147,2.162c1.771,0,3.13-0.693,4.079-2.083c0.949-1.388,1.43-3.413,1.441-6.073V245.701z"/>
	<polygon clip-path="url(#SVGID_2_)" points="800.401,233.484 806.976,252.046 813.515,233.484 820.44,233.484 820.44,259.078 
		815.149,259.078 815.149,252.082 815.677,240.005 808.769,259.078 805.147,259.078 798.257,240.022 798.784,252.082 
		798.784,259.078 793.511,259.078 793.511,233.484 	"/>
	<path clip-path="url(#SVGID_2_)" d="M830.391,250.06v9.018h-5.273v-25.594h9.984c1.922,0,3.612,0.353,5.071,1.056
		c1.459,0.702,2.581,1.701,3.366,2.996c0.785,1.296,1.178,2.77,1.178,4.422c0,2.508-0.858,4.484-2.575,5.933
		c-1.717,1.447-4.093,2.17-7.128,2.17H830.391z M830.391,245.789h4.711c1.395,0,2.458-0.328,3.19-0.984
		c0.732-0.657,1.099-1.594,1.099-2.813c0-1.254-0.369-2.267-1.107-3.041c-0.738-0.772-1.758-1.172-3.059-1.194h-4.834V245.789z"/>
	<path clip-path="url(#SVGID_2_)" d="M869.088,246.86c0,2.521-0.446,4.729-1.336,6.627c-0.891,1.899-2.165,3.363-3.823,4.396
		c-1.659,1.031-3.56,1.547-5.705,1.547c-2.12,0-4.013-0.51-5.677-1.53c-1.664-1.019-2.953-2.475-3.867-4.368
		c-0.915-1.893-1.377-4.068-1.389-6.529v-1.267c0-2.519,0.454-4.736,1.362-6.652c0.907-1.916,2.191-3.388,3.85-4.412
		c1.658-1.026,3.554-1.538,5.687-1.538s4.028,0.512,5.687,1.538c1.658,1.024,2.941,2.496,3.849,4.412
		c0.909,1.916,1.363,4.128,1.363,6.636V246.86z M863.744,245.701c0-2.685-0.48-4.724-1.441-6.117
		c-0.961-1.396-2.332-2.092-4.113-2.092c-1.77,0-3.135,0.688-4.096,2.064s-1.447,3.396-1.459,6.056v1.248
		c0,2.613,0.48,4.642,1.441,6.082c0.961,1.442,2.344,2.162,4.147,2.162c1.771,0,3.13-0.693,4.079-2.083
		c0.949-1.388,1.43-3.413,1.441-6.073V245.701z"/>
	<polygon clip-path="url(#SVGID_2_)" points="893.668,259.077 888.395,259.077 878.129,242.237 878.129,259.077 872.856,259.077 
		872.856,233.483 878.129,233.483 888.412,250.358 888.412,233.483 893.668,233.483 	"/>
	<polygon clip-path="url(#SVGID_2_)" points="913.743,247.951 903.618,247.951 903.618,254.842 915.501,254.842 915.501,259.078 
		898.346,259.078 898.346,233.483 915.466,233.483 915.466,237.756 903.618,237.756 903.618,243.854 913.743,243.854 	"/>
	<polygon clip-path="url(#SVGID_2_)" points="939.735,259.077 934.463,259.077 924.196,242.237 924.196,259.077 918.924,259.077 
		918.924,233.483 924.196,233.483 934.479,250.358 934.479,233.483 939.735,233.483 	"/>
	<polygon clip-path="url(#SVGID_2_)" points="963.333,237.756 955.493,237.756 955.493,259.077 950.22,259.077 950.22,237.756 
		942.485,237.756 942.485,233.484 963.333,233.484 	"/>
	<polygon clip-path="url(#SVGID_2_)" points="981.471,247.951 971.346,247.951 971.346,254.842 983.229,254.842 983.229,259.078 
		966.072,259.078 966.072,233.483 983.193,233.483 983.193,237.756 971.346,237.756 971.346,243.854 981.471,243.854 	"/>
	<polygon clip-path="url(#SVGID_2_)" points="1007.462,259.077 1002.188,259.077 991.923,242.237 991.923,259.077 986.65,259.077 
		986.65,233.483 991.923,233.483 1002.206,250.358 1002.206,233.483 1007.462,233.483 	"/>
	<polygon clip-path="url(#SVGID_2_)" points="363.199,287.775 352.459,287.775 352.459,299.078 349.084,299.078 349.084,273.484 
		364.939,273.484 364.939,276.244 352.459,276.244 352.459,285.015 363.199,285.015 	"/>
	<path clip-path="url(#SVGID_2_)" d="M387.385,273.484v17.401c-0.012,2.414-0.771,4.39-2.277,5.925
		c-1.506,1.534-3.548,2.396-6.126,2.584l-0.896,0.035c-2.801,0-5.033-0.757-6.697-2.269c-1.665-1.511-2.508-3.591-2.532-6.24
		v-17.437h3.34v17.332c0,1.851,0.51,3.29,1.529,4.314c1.02,1.026,2.473,1.538,4.36,1.538c1.91,0,3.372-0.51,4.386-1.528
		c1.013-1.021,1.52-2.455,1.52-4.308v-17.349H387.385z M372.478,269.521c0-0.529,0.162-0.975,0.484-1.333
		c0.322-0.36,0.8-0.539,1.432-0.539c0.633,0,1.114,0.179,1.442,0.539c0.328,0.358,0.492,0.804,0.492,1.333s-0.164,0.972-0.492,1.324
		c-0.328,0.354-0.809,0.529-1.442,0.529c-0.632,0-1.11-0.176-1.432-0.529C372.64,270.492,372.478,270.05,372.478,269.521
		 M380.037,269.556c0-0.529,0.161-0.978,0.483-1.343c0.323-0.364,0.8-0.548,1.433-0.548s1.113,0.184,1.441,0.548
		c0.329,0.365,0.493,0.813,0.493,1.343s-0.164,0.972-0.493,1.324c-0.328,0.354-0.808,0.529-1.441,0.529s-1.11-0.176-1.433-0.529
		C380.198,270.527,380.037,270.085,380.037,269.556"/>
	<path clip-path="url(#SVGID_2_)" d="M402.516,288.725h-6.012v10.353h-3.393v-25.593h8.473c2.883,0,5.101,0.656,6.653,1.968
		c1.553,1.313,2.33,3.224,2.33,5.731c0,1.593-0.431,2.981-1.292,4.166c-0.862,1.183-2.06,2.067-3.595,2.653l6.012,10.863v0.211
		h-3.622L402.516,288.725z M396.504,285.965h5.186c1.675,0,3.008-0.435,3.999-1.304c0.99-0.869,1.485-2.03,1.485-3.486
		c0-1.585-0.472-2.801-1.415-3.646c-0.943-0.845-2.306-1.273-4.087-1.286h-5.168V285.965z"/>
	<path clip-path="url(#SVGID_2_)" d="M424.999,299.078v-25.595h7.225c2.226,0,4.195,0.492,5.906,1.478
		c1.711,0.983,3.032,2.385,3.964,4.201c0.931,1.815,1.403,3.901,1.415,6.258v1.635c0,2.414-0.466,4.529-1.398,6.345
		c-0.931,1.817-2.261,3.211-3.99,4.185c-1.728,0.972-3.741,1.471-6.038,1.494H424.999z M428.374,276.244v20.073h3.551
		c2.601,0,4.626-0.809,6.073-2.428c1.447-1.618,2.171-3.923,2.171-6.914v-1.496c0-2.908-0.683-5.169-2.048-6.782
		c-1.365-1.611-3.302-2.431-5.809-2.453H428.374z"/>
	<rect x="448.733" y="273.484" clip-path="url(#SVGID_2_)" width="3.375" height="25.594"/>
	<polygon clip-path="url(#SVGID_2_)" points="472.771,287.248 461.679,287.248 461.679,296.317 474.563,296.317 474.563,299.077 
		458.304,299.077 458.304,273.483 474.388,273.483 474.388,276.243 461.679,276.243 461.679,284.487 472.771,284.487 	"/>
	<path clip-path="url(#SVGID_2_)" d="M502.602,292.381h-10.723l-2.408,6.696h-3.48l9.773-25.594h2.953l9.791,25.594h-3.463
		L502.602,292.381z M492.898,289.62h8.701l-4.359-11.971L492.898,289.62z"/>
	<polygon clip-path="url(#SVGID_2_)" points="532.073,299.077 528.68,299.077 515.796,279.354 515.796,299.077 512.403,299.077 
		512.403,273.483 515.796,273.483 528.716,293.295 528.716,273.483 532.073,273.483 	"/>
	<path clip-path="url(#SVGID_2_)" d="M538.168,299.078v-25.595h7.225c2.226,0,4.195,0.492,5.906,1.478
		c1.711,0.983,3.032,2.385,3.964,4.201c0.931,1.815,1.403,3.901,1.415,6.258v1.635c0,2.414-0.466,4.529-1.397,6.345
		c-0.931,1.817-2.261,3.211-3.99,4.185c-1.728,0.972-3.741,1.471-6.038,1.494H538.168z M541.543,276.244v20.073h3.551
		c2.601,0,4.626-0.809,6.073-2.428c1.447-1.618,2.171-3.923,2.171-6.914v-1.496c0-2.908-0.683-5.169-2.048-6.782
		c-1.365-1.611-3.302-2.431-5.809-2.453H541.543z"/>
	<polygon clip-path="url(#SVGID_2_)" points="576.274,287.248 565.183,287.248 565.183,296.317 578.067,296.317 578.067,299.077 
		561.808,299.077 561.808,273.483 577.892,273.483 577.892,276.243 565.183,276.243 565.183,284.487 576.274,284.487 	"/>
	<polygon clip-path="url(#SVGID_2_)" points="601.996,299.077 598.603,299.077 585.719,279.354 585.719,299.077 582.326,299.077 
		582.326,273.483 585.719,273.483 598.639,293.295 598.639,273.483 601.996,273.483 	"/>
	<path clip-path="url(#SVGID_2_)" d="M617.479,288.725h-6.012v10.353h-3.393v-25.593h8.473c2.883,0,5.101,0.656,6.653,1.968
		c1.553,1.313,2.33,3.224,2.33,5.731c0,1.593-0.431,2.981-1.292,4.166c-0.862,1.183-2.06,2.067-3.595,2.653l6.012,10.863v0.211
		h-3.622L617.479,288.725z M611.467,285.965h5.186c1.675,0,3.008-0.435,3.999-1.304c0.99-0.869,1.485-2.03,1.485-3.486
		c0-1.585-0.472-2.801-1.415-3.646c-0.943-0.845-2.306-1.273-4.087-1.286h-5.168V285.965z"/>
	<polygon clip-path="url(#SVGID_2_)" points="645.092,287.248 634,287.248 634,296.317 646.885,296.317 646.885,299.077 
		630.625,299.077 630.625,273.483 646.709,273.483 646.709,276.243 634,276.243 634,284.487 645.092,284.487 	"/>
	<path clip-path="url(#SVGID_2_)" d="M669.532,295.72c-0.867,1.242-2.077,2.172-3.63,2.786c-1.553,0.615-3.36,0.924-5.423,0.924
		c-2.086,0-3.937-0.489-5.554-1.469c-1.618-0.978-2.869-2.37-3.753-4.175c-0.885-1.804-1.339-3.896-1.363-6.275v-2.231
		c0-3.856,0.9-6.844,2.699-8.965c1.798-2.121,4.327-3.183,7.585-3.183c2.671,0,4.822,0.684,6.451,2.049
		c1.629,1.364,2.625,3.302,2.988,5.81h-3.375c-0.633-3.399-2.648-5.098-6.047-5.098c-2.262,0-3.975,0.795-5.141,2.384
		s-1.755,3.891-1.767,6.905v2.094c0,2.873,0.656,5.157,1.969,6.852c1.312,1.695,3.088,2.542,5.326,2.542
		c1.265,0,2.373-0.14,3.322-0.421c0.949-0.28,1.734-0.754,2.356-1.42v-5.735h-5.924v-2.76h9.281V295.72z"/>
	<rect x="675.403" y="273.484" clip-path="url(#SVGID_2_)" width="3.375" height="25.594"/>
	<path clip-path="url(#SVGID_2_)" d="M704.689,287.106c0,2.508-0.421,4.697-1.265,6.566c-0.844,1.869-2.039,3.296-3.586,4.279
		c-1.547,0.984-3.352,1.478-5.414,1.478c-2.016,0-3.803-0.496-5.362-1.486c-1.558-0.99-2.768-2.401-3.629-4.235
		c-0.862-1.834-1.304-3.958-1.328-6.372v-1.847c0-2.461,0.428-4.635,1.284-6.521c0.855-1.887,2.065-3.331,3.63-4.333
		c1.564-1.002,3.354-1.503,5.37-1.503c2.05,0,3.858,0.495,5.422,1.484c1.565,0.99,2.769,2.427,3.613,4.308
		c0.844,1.881,1.265,4.068,1.265,6.564V287.106z M701.332,285.455c0-3.035-0.609-5.364-1.828-6.987
		c-1.219-1.623-2.924-2.436-5.115-2.436c-2.133,0-3.812,0.813-5.036,2.436c-1.225,1.623-1.855,3.876-1.89,6.758v1.881
		c0,2.942,0.618,5.253,1.854,6.936c1.237,1.682,2.939,2.521,5.107,2.521c2.179,0,3.867-0.794,5.062-2.381
		c1.196-1.588,1.811-3.865,1.846-6.83V285.455z"/>
	<polygon clip-path="url(#SVGID_2_)" points="729.537,299.077 726.144,299.077 713.26,279.354 713.26,299.077 709.867,299.077 
		709.867,273.483 713.26,273.483 726.18,293.295 726.18,273.483 729.537,273.483 	"/>
</g>
</svg>
