<?xml version="1.0" encoding="utf-8"?>
<!-- Generator: Adobe Illustrator 15.1.0, SVG Export Plug-In . SVG Version: 6.00 Build 0)  -->
<!DOCTYPE svg PUBLIC "-//W3C//DTD SVG 1.1//EN" "http://www.w3.org/Graphics/SVG/1.1/DTD/svg11.dtd">
<svg version="1.1" id="Ebene_1" xmlns="http://www.w3.org/2000/svg" xmlns:xlink="http://www.w3.org/1999/xlink" x="0px" y="0px"
	 width="1500px" height="360px" viewBox="0 0 1500 360" enable-background="new 0 0 1500 360" xml:space="preserve">
<g>
	<defs>
		<rect id="SVGID_1_" width="1500" height="360"/>
	</defs>
	<clipPath id="SVGID_2_">
		<use xlink:href="#SVGID_1_"  overflow="visible"/>
	</clipPath>
	<path clip-path="url(#SVGID_2_)" d="M170.652,48.549c6.152,0,12.304,2.333,16.971,7l107.48,107.48
		c9.334,9.334,9.334,24.608,0,33.942l-107.48,107.48c-4.667,4.667-10.819,7-16.971,7c-6.151,0-12.304-2.333-16.971-7l-107.48-107.48
		c-9.333-9.334-9.333-24.608,0-33.942l107.48-107.48C158.348,50.882,164.501,48.549,170.652,48.549 M170.652,29.349
		c-11.558,0-22.406,4.483-30.547,12.624l-107.48,107.48c-8.141,8.141-12.624,18.989-12.624,30.547
		c0,11.558,4.483,22.406,12.624,30.547l107.48,107.48c8.141,8.141,18.989,12.624,30.547,12.624s22.406-4.483,30.547-12.624
		l107.48-107.48c8.141-8.141,12.624-18.989,12.624-30.547c0-11.558-4.483-22.406-12.624-30.547l-107.48-107.48
		C193.058,33.832,182.211,29.349,170.652,29.349 M65.571,183.337c-2.139,0-3.209,2.585-1.697,4.097l103.385,103.412
		c1.197,1.198,2.64,1.392,3.393,1.392c0.754,0,2.196-0.172,3.395-1.37L277.431,187.43c1.512-1.511,0.441-4.096-1.697-4.096
		L65.571,183.337z"/>
	<path clip-path="url(#SVGID_2_)" d="M377.9,132.728h-9.277v25.146h-17.139V86.779h27.979c8.431,0,15.022,1.87,19.775,5.61
		c4.752,3.739,7.129,9.023,7.129,15.852c0,4.943-1.001,9.04-3.003,12.291c-2.002,3.252-5.136,5.887-9.399,7.903l14.844,28.705v0.733
		h-18.36L377.9,132.728z M368.623,119.543h10.84c3.255,0,5.704-0.856,7.348-2.569c1.644-1.714,2.466-4.105,2.466-7.172
		c0-3.068-0.83-5.474-2.49-7.22c-1.66-1.745-4.101-2.619-7.324-2.619h-10.84V119.543z"/>
	<rect x="416.16" y="86.78" clip-path="url(#SVGID_2_)" width="17.09" height="71.094"/>
	<polygon clip-path="url(#SVGID_2_)" points="488.736,127.698 461.783,127.698 461.783,144.69 493.619,144.69 493.619,157.874 
		444.645,157.874 444.645,86.78 493.716,86.78 493.716,100.012 461.783,100.012 461.783,115.003 488.736,115.003 	"/>
	<path clip-path="url(#SVGID_2_)" d="M536.512,138.977c0-2.506-0.888-4.459-2.661-5.859c-1.775-1.4-4.892-2.848-9.351-4.346
		c-4.46-1.497-8.105-2.945-10.937-4.346c-9.213-4.524-13.819-10.742-13.819-18.652c0-3.939,1.148-7.413,3.443-10.425
		c2.295-3.011,5.542-5.354,9.741-7.031c4.199-1.676,8.919-2.515,14.16-2.515c5.111,0,9.693,0.912,13.745,2.735
		c4.053,1.823,7.202,4.418,9.449,7.788c2.246,3.369,3.369,7.218,3.369,11.547h-17.09c0-2.896-0.888-5.142-2.661-6.738
		c-1.775-1.595-4.175-2.392-7.202-2.392c-3.061,0-5.478,0.675-7.251,2.026c-1.775,1.352-2.662,3.068-2.662,5.151
		c0,1.824,0.977,3.476,2.93,4.956c1.953,1.482,5.387,3.012,10.303,4.59c4.915,1.579,8.951,3.281,12.109,5.103
		c7.682,4.428,11.524,10.531,11.524,18.31c0,6.218-2.344,11.101-7.032,14.649c-4.687,3.549-11.117,5.322-19.287,5.322
		c-5.761,0-10.978-1.033-15.649-3.101c-4.672-2.066-8.188-4.898-10.547-8.496c-2.36-3.596-3.54-7.739-3.54-12.426h17.187
		c0,3.808,0.985,6.616,2.955,8.422c1.968,1.807,5.167,2.71,9.594,2.71c2.832,0,5.07-0.61,6.714-1.831
		C535.689,142.908,536.512,141.191,536.512,138.977"/>
	<path clip-path="url(#SVGID_2_)" d="M619.092,149.084c-2.637,2.93-6.494,5.29-11.572,7.08c-5.078,1.79-10.645,2.686-16.699,2.686
		c-9.31,0-16.749-2.848-22.315-8.545c-5.566-5.697-8.545-13.623-8.935-23.78l-0.049-6.152c0-6.998,1.237-13.11,3.711-18.335
		c2.473-5.225,6.013-9.244,10.62-12.06c4.606-2.816,9.936-4.224,15.991-4.224c8.854,0,15.73,2.026,20.63,6.079
		c4.899,4.053,7.756,10.1,8.569,18.14h-16.504c-0.586-3.971-1.855-6.803-3.808-8.496c-1.953-1.693-4.72-2.539-8.301-2.539
		c-4.297,0-7.617,1.823-9.961,5.468c-2.344,3.647-3.532,8.855-3.565,15.625v4.297c0,7.097,1.213,12.427,3.638,15.991
		c2.425,3.565,6.242,5.347,11.45,5.347c4.46,0,7.781-0.992,9.961-2.978v-11.036h-11.914v-11.767h29.053V149.084z"/>
	<path clip-path="url(#SVGID_2_)" d="M688.458,123.792c0,6.933-1.286,13.07-3.858,18.408c-2.571,5.339-6.225,9.448-10.962,12.329
		c-4.736,2.881-10.132,4.321-16.187,4.321c-6.055,0-11.426-1.391-16.113-4.175c-4.688-2.783-8.342-6.762-10.962-11.938
		c-2.621-5.176-3.997-11.116-4.126-17.822v-4.004c0-6.966,1.277-13.111,3.833-18.433c2.555-5.322,6.217-9.432,10.986-12.329
		s10.197-4.346,16.284-4.346c6.023,0,11.394,1.433,16.113,4.297c4.72,2.865,8.391,6.942,11.011,12.232s3.947,11.352,3.98,18.188
		V123.792z M671.026,120.813c0-7.063-1.18-12.427-3.54-16.089s-5.737-5.493-10.132-5.493c-8.594,0-13.135,6.445-13.623,19.336
		l-0.049,5.225c0,6.966,1.156,12.321,3.467,16.064c2.312,3.744,5.745,5.615,10.303,5.615c4.329,0,7.666-1.839,10.01-5.517
		c2.343-3.678,3.532-8.968,3.564-15.87V120.813z"/>
	<path clip-path="url(#SVGID_2_)" d="M732.446,138.977c0-2.506-0.888-4.459-2.661-5.859c-1.775-1.4-4.892-2.848-9.351-4.346
		c-4.46-1.497-8.105-2.945-10.937-4.346c-9.213-4.524-13.819-10.742-13.819-18.652c0-3.939,1.148-7.413,3.443-10.425
		c2.295-3.011,5.542-5.354,9.741-7.031c4.199-1.676,8.919-2.515,14.16-2.515c5.111,0,9.693,0.912,13.745,2.735
		c4.053,1.823,7.202,4.418,9.449,7.788c2.246,3.369,3.369,7.218,3.369,11.547h-17.09c0-2.896-0.888-5.142-2.661-6.738
		c-1.775-1.595-4.175-2.392-7.202-2.392c-3.061,0-5.478,0.675-7.251,2.026c-1.775,1.352-2.662,3.068-2.662,5.151
		c0,1.824,0.977,3.476,2.93,4.956c1.953,1.482,5.387,3.012,10.303,4.59c4.915,1.579,8.951,3.281,12.109,5.103
		c7.682,4.428,11.524,10.531,11.524,18.31c0,6.218-2.344,11.101-7.032,14.649c-4.687,3.549-11.117,5.322-19.287,5.322
		c-5.761,0-10.978-1.033-15.649-3.101c-4.672-2.066-8.188-4.898-10.547-8.496c-2.36-3.596-3.54-7.739-3.54-12.426h17.187
		c0,3.808,0.985,6.616,2.955,8.422c1.968,1.807,5.167,2.71,9.594,2.71c2.832,0,5.07-0.61,6.714-1.831
		C731.624,142.908,732.446,141.191,732.446,138.977"/>
	<polygon clip-path="url(#SVGID_2_)" points="355.289,193.484 361.863,212.046 368.402,193.484 375.328,193.484 375.328,219.078 
		370.037,219.078 370.037,212.082 370.564,200.005 363.656,219.078 360.035,219.078 353.144,200.022 353.672,212.082 
		353.672,219.078 348.398,219.078 348.398,193.484 	"/>
	<path clip-path="url(#SVGID_2_)" d="M399.463,193.484v16.856c0,2.801-0.876,5.016-2.628,6.646
		c-1.752,1.629-4.145,2.442-7.181,2.442c-2.988,0-5.361-0.791-7.119-2.373c-1.758-1.582-2.654-3.756-2.689-6.521v-17.051h5.273
		v16.893c0,1.675,0.402,2.896,1.204,3.665c0.803,0.767,1.913,1.151,3.331,1.151c2.965,0,4.471-1.56,4.518-4.677v-17.032H399.463z"/>
	<polygon clip-path="url(#SVGID_2_)" points="409.229,214.841 420.426,214.841 420.426,219.077 403.957,219.077 403.957,193.484 
		409.229,193.484 	"/>
	<polygon clip-path="url(#SVGID_2_)" points="439.231,197.756 431.392,197.756 431.392,219.077 426.118,219.077 426.118,197.756 
		418.383,197.756 418.383,193.484 439.231,193.484 	"/>
	<rect x="442.136" y="193.484" clip-path="url(#SVGID_2_)" width="5.273" height="25.594"/>
	<rect x="451.934" y="206.07" clip-path="url(#SVGID_2_)" width="9.896" height="4.096"/>
	<path clip-path="url(#SVGID_2_)" d="M475.753,209.708h-4.201v9.37h-5.273v-25.594h9.509c3.024,0,5.356,0.674,6.996,2.021
		c1.641,1.348,2.461,3.252,2.461,5.713c0,1.746-0.378,3.202-1.133,4.368c-0.756,1.166-1.902,2.095-3.437,2.787l5.537,10.459v0.246
		h-5.66L475.753,209.708z M471.552,205.437h4.254c1.324,0,2.35-0.337,3.076-1.011c0.727-0.674,1.09-1.602,1.09-2.786
		c0-1.207-0.343-2.155-1.028-2.848c-0.686-0.691-1.738-1.037-3.156-1.037h-4.236V205.437z"/>
	<rect x="489.303" y="193.484" clip-path="url(#SVGID_2_)" width="5.273" height="25.594"/>
	<path clip-path="url(#SVGID_2_)" d="M512.46,212.363c0-0.996-0.352-1.762-1.055-2.295c-0.703-0.532-1.968-1.096-3.797-1.687
		c-1.828-0.592-3.275-1.175-4.341-1.749c-2.907-1.571-4.36-3.686-4.36-6.346c0-1.384,0.39-2.616,1.169-3.7
		c0.78-1.084,1.899-1.931,3.358-2.54c1.459-0.61,3.096-0.914,4.913-0.914c1.828,0,3.457,0.331,4.886,0.993
		c1.43,0.662,2.54,1.596,3.331,2.803c0.792,1.207,1.187,2.579,1.187,4.114h-5.273c0-1.172-0.37-2.083-1.108-2.734
		c-0.738-0.649-1.775-0.975-3.111-0.975c-1.289,0-2.291,0.271-3.006,0.816s-1.072,1.264-1.072,2.153c0,0.832,0.419,1.53,1.257,2.092
		c0.837,0.563,2.071,1.09,3.7,1.582c3,0.903,5.185,2.022,6.556,3.358c1.371,1.336,2.057,3,2.057,4.992
		c0,2.215-0.838,3.952-2.514,5.212c-1.675,1.26-3.931,1.889-6.767,1.889c-1.969,0-3.762-0.36-5.379-1.081
		c-1.617-0.72-2.851-1.708-3.7-2.962c-0.85-1.253-1.275-2.707-1.275-4.359h5.291c0,2.824,1.688,4.236,5.063,4.236
		c1.254,0,2.232-0.254,2.935-0.764C512.108,213.989,512.46,213.276,512.46,212.363"/>
	<polygon clip-path="url(#SVGID_2_)" points="529.414,208.812 526.672,211.765 526.672,219.078 521.398,219.078 521.398,193.484 
		526.672,193.484 526.672,205.085 528.992,201.904 535.514,193.484 542,193.484 532.912,204.857 542.264,219.078 535.988,219.078 	
		"/>
	<path clip-path="url(#SVGID_2_)" d="M567.664,213.804h-9.246l-1.758,5.274h-5.607l9.527-25.595h4.887l9.58,25.595h-5.607
		L567.664,213.804z M559.842,209.532h6.398l-3.216-9.579L559.842,209.532z"/>
	<polygon clip-path="url(#SVGID_2_)" points="598.297,219.077 593.024,219.077 582.758,202.237 582.758,219.077 577.485,219.077 
		577.485,193.483 582.758,193.483 593.041,210.358 593.041,193.483 598.297,193.483 	"/>
	<path clip-path="url(#SVGID_2_)" d="M617.376,213.804h-9.246l-1.758,5.274h-5.607l9.527-25.595h4.887l9.58,25.595h-5.607
		L617.376,213.804z M609.555,209.532h6.398l-3.216-9.579L609.555,209.532z"/>
	<polygon clip-path="url(#SVGID_2_)" points="632.471,214.841 643.667,214.841 643.667,219.077 627.198,219.077 627.198,193.484 
		632.471,193.484 	"/>
	<polygon clip-path="url(#SVGID_2_)" points="652.031,205.015 657.357,193.484 663.123,193.484 654.72,209.796 654.72,219.078 
		649.359,219.078 649.359,209.796 640.957,193.484 646.74,193.484 	"/>
	<path clip-path="url(#SVGID_2_)" d="M677.764,212.363c0-0.996-0.352-1.762-1.055-2.295c-0.703-0.532-1.968-1.096-3.797-1.687
		c-1.828-0.592-3.275-1.175-4.341-1.749c-2.907-1.571-4.36-3.686-4.36-6.346c0-1.384,0.39-2.616,1.169-3.7
		c0.78-1.084,1.899-1.931,3.358-2.54c1.459-0.61,3.096-0.914,4.913-0.914c1.828,0,3.457,0.331,4.886,0.993
		c1.43,0.662,2.54,1.596,3.331,2.803c0.792,1.207,1.187,2.579,1.187,4.114h-5.273c0-1.172-0.37-2.083-1.108-2.734
		c-0.738-0.649-1.775-0.975-3.111-0.975c-1.289,0-2.291,0.271-3.006,0.816s-1.072,1.264-1.072,2.153c0,0.832,0.419,1.53,1.257,2.092
		c0.837,0.563,2.071,1.09,3.7,1.582c3,0.903,5.185,2.022,6.556,3.358s2.057,3,2.057,4.992c0,2.215-0.838,3.952-2.514,5.212
		c-1.675,1.26-3.931,1.889-6.767,1.889c-1.969,0-3.762-0.36-5.379-1.081c-1.617-0.72-2.851-1.708-3.7-2.962
		c-0.85-1.253-1.275-2.707-1.275-4.359h5.291c0,2.824,1.688,4.236,5.063,4.236c1.254,0,2.232-0.254,2.935-0.764
		C677.412,213.989,677.764,213.276,677.764,212.363"/>
	<rect x="686.911" y="193.484" clip-path="url(#SVGID_2_)" width="5.273" height="25.594"/>
	<path clip-path="url(#SVGID_2_)" d="M710.068,212.363c0-0.996-0.352-1.762-1.055-2.295c-0.703-0.532-1.968-1.096-3.797-1.687
		c-1.828-0.592-3.275-1.175-4.341-1.749c-2.907-1.571-4.36-3.686-4.36-6.346c0-1.384,0.39-2.616,1.169-3.7
		c0.78-1.084,1.899-1.931,3.358-2.54c1.459-0.61,3.096-0.914,4.913-0.914c1.828,0,3.457,0.331,4.886,0.993
		c1.43,0.662,2.54,1.596,3.331,2.803c0.792,1.207,1.187,2.579,1.187,4.114h-5.273c0-1.172-0.37-2.083-1.108-2.734
		c-0.738-0.649-1.775-0.975-3.111-0.975c-1.289,0-2.291,0.271-3.006,0.816s-1.072,1.264-1.072,2.153c0,0.832,0.419,1.53,1.257,2.092
		c0.837,0.563,2.071,1.09,3.7,1.582c3,0.903,5.185,2.022,6.556,3.358c1.371,1.336,2.057,3,2.057,4.992
		c0,2.215-0.838,3.952-2.514,5.212c-1.675,1.26-3.931,1.889-6.767,1.889c-1.969,0-3.762-0.36-5.379-1.081
		c-1.617-0.72-2.851-1.708-3.7-2.962c-0.85-1.253-1.275-2.707-1.275-4.359h5.291c0,2.824,1.688,4.236,5.063,4.236
		c1.254,0,2.232-0.254,2.935-0.764C709.716,213.989,710.068,213.276,710.068,212.363"/>
	<path clip-path="url(#SVGID_2_)" d="M742.341,213.804h-9.246l-1.758,5.274h-5.607l9.527-25.595h4.887l9.58,25.595h-5.607
		L742.341,213.804z M734.52,209.532h6.398l-3.216-9.579L734.52,209.532z"/>
	<polygon clip-path="url(#SVGID_2_)" points="772.975,219.077 767.701,219.077 757.436,202.237 757.436,219.077 752.162,219.077 
		752.162,193.483 757.436,193.483 767.719,210.358 767.719,193.483 772.975,193.483 	"/>
	<path clip-path="url(#SVGID_2_)" d="M777.652,219.077v-25.593h7.875c2.25,0,4.263,0.506,6.038,1.521
		c1.775,1.014,3.161,2.454,4.157,4.323s1.494,3.993,1.494,6.372v1.178c0,2.38-0.489,4.494-1.468,6.347
		c-0.979,1.851-2.358,3.287-4.14,4.306c-1.781,1.021-3.791,1.536-6.029,1.547H777.652z M782.926,197.756v17.086h2.549
		c2.063,0,3.638-0.675,4.729-2.022c1.09-1.347,1.646-3.275,1.67-5.783v-1.353c0-2.603-0.539-4.574-1.617-5.915
		c-1.078-1.342-2.654-2.013-4.729-2.013H782.926z"/>
	<rect x="348.733" y="233.484" clip-path="url(#SVGID_2_)" width="5.273" height="25.594"/>
	<polygon clip-path="url(#SVGID_2_)" points="379.637,259.077 374.364,259.077 364.098,242.237 364.098,259.077 358.825,259.077 
		358.825,233.483 364.098,233.483 374.381,250.358 374.381,233.483 379.637,233.483 	"/>
	<polygon clip-path="url(#SVGID_2_)" points="399.713,248.619 389.588,248.619 389.588,259.078 384.315,259.078 384.315,233.483 
		400.979,233.483 400.979,237.756 389.588,237.756 389.588,244.364 399.713,244.364 	"/>
	<path clip-path="url(#SVGID_2_)" d="M424.527,246.86c0,2.521-0.446,4.729-1.336,6.627c-0.891,1.899-2.165,3.363-3.823,4.396
		c-1.659,1.031-3.56,1.547-5.705,1.547c-2.121,0-4.013-0.51-5.677-1.53c-1.664-1.019-2.953-2.475-3.867-4.368
		c-0.915-1.893-1.377-4.068-1.389-6.529v-1.267c0-2.519,0.454-4.736,1.362-6.652c0.908-1.916,2.192-3.388,3.85-4.412
		c1.658-1.026,3.554-1.538,5.686-1.538c2.133,0,4.029,0.512,5.687,1.538c1.658,1.024,2.941,2.496,3.849,4.412
		c0.909,1.916,1.363,4.128,1.363,6.636V246.86z M419.184,245.701c0-2.685-0.48-4.724-1.441-6.117
		c-0.961-1.396-2.332-2.092-4.114-2.092c-1.769,0-3.134,0.688-4.095,2.064s-1.448,3.396-1.459,6.056v1.248
		c0,2.613,0.48,4.642,1.441,6.082c0.961,1.442,2.344,2.162,4.148,2.162c1.77,0,3.129-0.693,4.079-2.083
		c0.949-1.388,1.429-3.413,1.441-6.073V245.701z"/>
	<path clip-path="url(#SVGID_2_)" d="M437.77,249.708h-4.201v9.37h-5.273v-25.594h9.509c3.024,0,5.356,0.674,6.996,2.021
		c1.641,1.348,2.461,3.252,2.461,5.713c0,1.746-0.378,3.202-1.133,4.368c-0.756,1.166-1.902,2.095-3.437,2.787l5.537,10.459v0.246
		h-5.66L437.77,249.708z M433.568,245.437h4.254c1.324,0,2.35-0.337,3.076-1.011c0.727-0.674,1.09-1.602,1.09-2.786
		c0-1.207-0.343-2.155-1.028-2.848c-0.686-0.691-1.738-1.037-3.156-1.037h-4.236V245.437z"/>
	<polygon clip-path="url(#SVGID_2_)" points="458.063,233.484 464.637,252.046 471.175,233.484 478.102,233.484 478.102,259.078 
		472.811,259.078 472.811,252.082 473.337,240.005 466.43,259.078 462.809,259.078 455.917,240.022 456.445,252.082 
		456.445,259.078 451.171,259.078 451.171,233.484 	"/>
	<path clip-path="url(#SVGID_2_)" d="M497.182,253.804h-9.246l-1.758,5.274h-5.607l9.527-25.595h4.887l9.58,25.595h-5.607
		L497.182,253.804z M489.359,249.532h6.398l-3.216-9.579L489.359,249.532z"/>
	<polygon clip-path="url(#SVGID_2_)" points="523.067,237.756 515.228,237.756 515.228,259.077 509.955,259.077 509.955,237.756 
		502.219,237.756 502.219,233.484 523.067,233.484 	"/>
	<rect x="525.972" y="233.484" clip-path="url(#SVGID_2_)" width="5.273" height="25.594"/>
	<path clip-path="url(#SVGID_2_)" d="M556.938,246.86c0,2.521-0.446,4.729-1.336,6.627c-0.891,1.899-2.165,3.363-3.823,4.396
		c-1.659,1.031-3.56,1.547-5.705,1.547c-2.121,0-4.013-0.51-5.677-1.53c-1.664-1.019-2.953-2.475-3.867-4.368
		c-0.915-1.893-1.377-4.068-1.389-6.529v-1.267c0-2.519,0.454-4.736,1.362-6.652c0.908-1.916,2.192-3.388,3.85-4.412
		c1.658-1.026,3.554-1.538,5.686-1.538c2.133,0,4.029,0.512,5.687,1.538c1.658,1.024,2.941,2.496,3.849,4.412
		c0.909,1.916,1.363,4.128,1.363,6.636V246.86z M551.595,245.701c0-2.685-0.48-4.724-1.441-6.117
		c-0.961-1.396-2.332-2.092-4.114-2.092c-1.769,0-3.134,0.688-4.095,2.064s-1.448,3.396-1.459,6.056v1.248
		c0,2.613,0.48,4.642,1.441,6.082c0.961,1.442,2.344,2.162,4.148,2.162c1.77,0,3.129-0.693,4.079-2.083
		c0.949-1.388,1.429-3.413,1.441-6.073V245.701z"/>
	<polygon clip-path="url(#SVGID_2_)" points="581.519,259.077 576.246,259.077 565.979,242.237 565.979,259.077 560.707,259.077 
		560.707,233.483 565.979,233.483 576.263,250.358 576.263,233.483 581.519,233.483 	"/>
	<path clip-path="url(#SVGID_2_)" d="M608.36,252.363c0-0.996-0.352-1.762-1.055-2.295c-0.703-0.532-1.968-1.096-3.797-1.687
		c-1.828-0.592-3.275-1.175-4.341-1.749c-2.907-1.571-4.36-3.686-4.36-6.346c0-1.384,0.39-2.616,1.169-3.7
		c0.78-1.084,1.899-1.931,3.358-2.54c1.459-0.61,3.096-0.914,4.913-0.914c1.828,0,3.457,0.331,4.886,0.993
		c1.43,0.662,2.54,1.596,3.331,2.803c0.792,1.207,1.187,2.579,1.187,4.114h-5.273c0-1.172-0.37-2.083-1.108-2.734
		c-0.738-0.649-1.775-0.975-3.111-0.975c-1.289,0-2.291,0.271-3.006,0.816s-1.072,1.264-1.072,2.153c0,0.832,0.419,1.53,1.257,2.092
		c0.837,0.563,2.071,1.09,3.7,1.582c3,0.903,5.185,2.022,6.556,3.358c1.371,1.336,2.057,3,2.057,4.992
		c0,2.215-0.838,3.952-2.514,5.212c-1.675,1.26-3.931,1.889-6.767,1.889c-1.969,0-3.762-0.36-5.379-1.081
		c-1.617-0.72-2.851-1.708-3.7-2.962c-0.85-1.253-1.275-2.707-1.275-4.359h5.291c0,2.824,1.688,4.236,5.063,4.236
		c1.254,0,2.232-0.254,2.935-0.764C608.008,253.989,608.36,253.276,608.36,252.363"/>
	<polygon clip-path="url(#SVGID_2_)" points="625.346,245.015 630.672,233.484 636.438,233.484 628.035,249.796 628.035,259.078 
		622.674,259.078 622.674,249.796 614.271,233.484 620.055,233.484 	"/>
	<path clip-path="url(#SVGID_2_)" d="M651.078,252.363c0-0.996-0.352-1.762-1.055-2.295c-0.703-0.532-1.968-1.096-3.797-1.687
		c-1.828-0.592-3.275-1.175-4.341-1.749c-2.907-1.571-4.36-3.686-4.36-6.346c0-1.384,0.39-2.616,1.169-3.7
		c0.78-1.084,1.899-1.931,3.358-2.54c1.459-0.61,3.096-0.914,4.913-0.914c1.828,0,3.457,0.331,4.886,0.993
		c1.43,0.662,2.54,1.596,3.331,2.803c0.792,1.207,1.187,2.579,1.187,4.114h-5.273c0-1.172-0.37-2.083-1.108-2.734
		c-0.738-0.649-1.775-0.975-3.111-0.975c-1.289,0-2.291,0.271-3.006,0.816s-1.072,1.264-1.072,2.153c0,0.832,0.419,1.53,1.257,2.092
		c0.837,0.563,2.071,1.09,3.7,1.582c3,0.903,5.185,2.022,6.556,3.358s2.057,3,2.057,4.992c0,2.215-0.838,3.952-2.514,5.212
		c-1.675,1.26-3.931,1.889-6.767,1.889c-1.969,0-3.762-0.36-5.379-1.081c-1.617-0.72-2.851-1.708-3.7-2.962
		c-0.85-1.253-1.275-2.707-1.275-4.359h5.291c0,2.824,1.688,4.236,5.063,4.236c1.254,0,2.232-0.254,2.935-0.764
		C650.726,253.989,651.078,253.276,651.078,252.363"/>
	<polygon clip-path="url(#SVGID_2_)" points="679.196,237.756 671.356,237.756 671.356,259.077 666.083,259.077 666.083,237.756 
		658.348,237.756 658.348,233.484 679.196,233.484 	"/>
	<polygon clip-path="url(#SVGID_2_)" points="697.334,247.951 687.209,247.951 687.209,254.842 699.092,254.842 699.092,259.078 
		681.936,259.078 681.936,233.483 699.057,233.483 699.057,237.756 687.209,237.756 687.209,243.854 697.334,243.854 	"/>
	<polygon clip-path="url(#SVGID_2_)" points="709.404,233.484 715.979,252.046 722.517,233.484 729.443,233.484 729.443,259.078 
		724.152,259.078 724.152,252.082 724.679,240.005 717.771,259.078 714.15,259.078 707.259,240.022 707.787,252.082 
		707.787,259.078 702.513,259.078 702.513,233.484 	"/>
	<path clip-path="url(#SVGID_2_)" d="M763.105,250.552c-0.199,2.755-1.216,4.923-3.05,6.505s-4.251,2.373-7.251,2.373
		c-3.281,0-5.862-1.105-7.743-3.314s-2.821-5.241-2.821-9.096v-1.565c0-2.461,0.433-4.629,1.301-6.504
		c0.867-1.875,2.106-3.313,3.717-4.315c1.612-1.002,3.484-1.503,5.617-1.503c2.953,0,5.332,0.791,7.137,2.373
		s2.848,3.804,3.129,6.662h-5.273c-0.129-1.651-0.589-2.85-1.38-3.594c-0.791-0.745-1.995-1.117-3.612-1.117
		c-1.758,0-3.073,0.63-3.946,1.891c-0.873,1.26-1.321,3.214-1.344,5.861v1.935c0,2.765,0.418,4.787,1.256,6.063
		c0.838,1.278,2.16,1.916,3.964,1.916c1.629,0,2.845-0.372,3.647-1.116s1.263-1.895,1.38-3.454H763.105z"/>
	<path clip-path="url(#SVGID_2_)" d="M787.408,246.86c0,2.521-0.445,4.729-1.336,6.627c-0.891,1.899-2.165,3.363-3.822,4.396
		c-1.659,1.031-3.561,1.547-5.705,1.547c-2.121,0-4.014-0.51-5.678-1.53c-1.664-1.019-2.953-2.475-3.867-4.368
		c-0.914-1.893-1.377-4.068-1.389-6.529v-1.267c0-2.519,0.454-4.736,1.362-6.652s2.191-3.388,3.85-4.412
		c1.658-1.026,3.555-1.538,5.687-1.538c2.133,0,4.028,0.512,5.687,1.538c1.658,1.024,2.941,2.496,3.85,4.412
		s1.362,4.128,1.362,6.636V246.86z M782.064,245.701c0-2.685-0.48-4.724-1.441-6.117c-0.961-1.396-2.332-2.092-4.113-2.092
		c-1.77,0-3.135,0.688-4.096,2.064s-1.447,3.396-1.459,6.056v1.248c0,2.613,0.48,4.642,1.441,6.082
		c0.961,1.442,2.344,2.162,4.148,2.162c1.77,0,3.129-0.693,4.078-2.083c0.949-1.388,1.43-3.413,1.441-6.073V245.701z"/>
	<polygon clip-path="url(#SVGID_2_)" points="798.065,233.484 804.64,252.046 811.179,233.484 818.104,233.484 818.104,259.078 
		812.813,259.078 812.813,252.082 813.341,240.005 806.433,259.078 802.812,259.078 795.92,240.022 796.448,252.082 
		796.448,259.078 791.175,259.078 791.175,233.484 	"/>
	<path clip-path="url(#SVGID_2_)" d="M828.056,250.06v9.018h-5.272v-25.594h9.983c1.922,0,3.612,0.353,5.071,1.056
		c1.459,0.702,2.581,1.701,3.366,2.996c0.785,1.296,1.178,2.77,1.178,4.422c0,2.508-0.858,4.484-2.575,5.933
		c-1.717,1.447-4.093,2.17-7.128,2.17H828.056z M828.056,245.789h4.711c1.395,0,2.458-0.328,3.19-0.984
		c0.732-0.657,1.099-1.594,1.099-2.813c0-1.254-0.369-2.267-1.107-3.041c-0.738-0.772-1.758-1.172-3.059-1.194h-4.834V245.789z"/>
	<path clip-path="url(#SVGID_2_)" d="M866.753,246.86c0,2.521-0.446,4.729-1.336,6.627c-0.891,1.899-2.165,3.363-3.823,4.396
		c-1.658,1.031-3.56,1.547-5.705,1.547c-2.12,0-4.013-0.51-5.677-1.53c-1.664-1.019-2.953-2.475-3.867-4.368
		c-0.915-1.893-1.377-4.068-1.389-6.529v-1.267c0-2.519,0.454-4.736,1.362-6.652s2.191-3.388,3.85-4.412
		c1.658-1.026,3.555-1.538,5.687-1.538c2.133,0,4.028,0.512,5.687,1.538c1.658,1.024,2.941,2.496,3.85,4.412
		s1.362,4.128,1.362,6.636V246.86z M861.409,245.701c0-2.685-0.48-4.724-1.441-6.117c-0.961-1.396-2.332-2.092-4.113-2.092
		c-1.77,0-3.135,0.688-4.096,2.064s-1.447,3.396-1.459,6.056v1.248c0,2.613,0.48,4.642,1.441,6.082
		c0.961,1.442,2.344,2.162,4.147,2.162c1.771,0,3.13-0.693,4.079-2.083c0.949-1.388,1.43-3.413,1.441-6.073V245.701z"/>
	<polygon clip-path="url(#SVGID_2_)" points="891.333,259.077 886.06,259.077 875.794,242.237 875.794,259.077 870.521,259.077 
		870.521,233.483 875.794,233.483 886.077,250.358 886.077,233.483 891.333,233.483 	"/>
	<polygon clip-path="url(#SVGID_2_)" points="911.408,247.951 901.283,247.951 901.283,254.842 913.166,254.842 913.166,259.078 
		896.01,259.078 896.01,233.483 913.131,233.483 913.131,237.756 901.283,237.756 901.283,243.854 911.408,243.854 	"/>
	<polygon clip-path="url(#SVGID_2_)" points="937.4,259.077 932.127,259.077 921.861,242.237 921.861,259.077 916.588,259.077 
		916.588,233.483 921.861,233.483 932.145,250.358 932.145,233.483 937.4,233.483 	"/>
	<polygon clip-path="url(#SVGID_2_)" points="960.997,237.756 953.157,237.756 953.157,259.077 947.884,259.077 947.884,237.756 
		940.149,237.756 940.149,233.484 960.997,233.484 	"/>
	<path clip-path="url(#SVGID_2_)" d="M976.99,252.363c0-0.996-0.353-1.762-1.055-2.295c-0.703-0.532-1.969-1.096-3.798-1.687
		c-1.827-0.592-3.274-1.175-4.341-1.749c-2.906-1.571-4.359-3.686-4.359-6.346c0-1.384,0.39-2.616,1.169-3.7s1.898-1.931,3.357-2.54
		c1.459-0.61,3.097-0.914,4.913-0.914c1.828,0,3.457,0.331,4.886,0.993c1.431,0.662,2.54,1.596,3.331,2.803
		c0.792,1.207,1.188,2.579,1.188,4.114h-5.273c0-1.172-0.37-2.083-1.107-2.734c-0.738-0.649-1.775-0.975-3.111-0.975
		c-1.289,0-2.291,0.271-3.006,0.816s-1.072,1.264-1.072,2.153c0,0.832,0.419,1.53,1.257,2.092c0.837,0.563,2.071,1.09,3.7,1.582
		c3,0.903,5.186,2.022,6.557,3.358c1.37,1.336,2.057,3,2.057,4.992c0,2.215-0.838,3.952-2.514,5.212s-3.932,1.889-6.768,1.889
		c-1.969,0-3.762-0.36-5.379-1.081c-1.617-0.72-2.851-1.708-3.7-2.962c-0.85-1.253-1.274-2.707-1.274-4.359h5.291
		c0,2.824,1.688,4.236,5.063,4.236c1.254,0,2.232-0.254,2.936-0.764C976.638,253.989,976.99,253.276,976.99,252.363"/>
	<polygon clip-path="url(#SVGID_2_)" points="363.199,287.775 352.459,287.775 352.459,299.078 349.084,299.078 349.084,273.484 
		364.939,273.484 364.939,276.244 352.459,276.244 352.459,285.015 363.199,285.015 	"/>
	<path clip-path="url(#SVGID_2_)" d="M388.36,287.106c0,2.508-0.421,4.697-1.265,6.566c-0.844,1.869-2.039,3.296-3.586,4.279
		c-1.547,0.984-3.352,1.478-5.414,1.478c-2.016,0-3.803-0.496-5.362-1.486c-1.558-0.99-2.768-2.401-3.629-4.235
		c-0.862-1.834-1.304-3.958-1.328-6.372v-1.847c0-2.461,0.428-4.635,1.284-6.521c0.855-1.887,2.065-3.331,3.63-4.333
		c1.564-1.002,3.354-1.503,5.37-1.503c2.05,0,3.858,0.495,5.422,1.484c1.565,0.99,2.769,2.427,3.613,4.308
		c0.844,1.881,1.265,4.068,1.265,6.564V287.106z M385.003,285.455c0-3.035-0.609-5.364-1.828-6.987
		c-1.219-1.623-2.924-2.436-5.115-2.436c-2.133,0-3.812,0.813-5.036,2.436c-1.225,1.623-1.855,3.876-1.89,6.758v1.881
		c0,2.942,0.618,5.253,1.854,6.936c1.237,1.682,2.939,2.521,5.107,2.521c2.179,0,3.867-0.794,5.062-2.381
		c1.196-1.588,1.811-3.865,1.846-6.83V285.455z"/>
	<path clip-path="url(#SVGID_2_)" d="M402.925,288.725h-6.012v10.353h-3.393v-25.593h8.473c2.883,0,5.101,0.656,6.653,1.968
		c1.553,1.313,2.33,3.224,2.33,5.731c0,1.593-0.431,2.981-1.292,4.166c-0.862,1.183-2.06,2.067-3.595,2.653l6.012,10.863v0.211
		h-3.622L402.925,288.725z M396.913,285.965h5.186c1.675,0,3.008-0.435,3.999-1.304c0.99-0.869,1.485-2.03,1.485-3.486
		c0-1.585-0.472-2.801-1.415-3.646c-0.943-0.845-2.306-1.273-4.087-1.286h-5.168V285.965z"/>
	<polygon clip-path="url(#SVGID_2_)" points="443.092,276.244 434.865,276.244 434.865,299.078 431.508,299.078 431.508,276.244 
		423.299,276.244 423.299,273.483 443.092,273.483 	"/>
	<polygon clip-path="url(#SVGID_2_)" points="466.814,299.077 463.421,299.077 463.421,287.248 450.52,287.248 450.52,299.077 
		447.145,299.077 447.145,273.483 450.52,273.483 450.52,284.487 463.421,284.487 463.421,273.483 466.814,273.483 	"/>
	<polygon clip-path="url(#SVGID_2_)" points="487.376,287.248 476.284,287.248 476.284,296.317 489.169,296.317 489.169,299.077 
		472.909,299.077 472.909,273.483 488.993,273.483 488.993,276.243 476.284,276.243 476.284,284.487 487.376,284.487 	"/>
	<path clip-path="url(#SVGID_2_)" d="M517.207,292.381h-10.723l-2.408,6.696h-3.48l9.773-25.594h2.953l9.791,25.594h-3.463
		L517.207,292.381z M507.504,289.62h8.701l-4.359-11.971L507.504,289.62z"/>
	<polygon clip-path="url(#SVGID_2_)" points="546.679,299.077 543.286,299.077 530.402,279.354 530.402,299.077 527.009,299.077 
		527.009,273.483 530.402,273.483 543.322,293.295 543.322,273.483 546.679,273.483 	"/>
	<path clip-path="url(#SVGID_2_)" d="M552.773,299.078v-25.595h7.225c2.226,0,4.195,0.492,5.906,1.478
		c1.711,0.983,3.032,2.385,3.964,4.201c0.931,1.815,1.403,3.901,1.415,6.258v1.635c0,2.414-0.466,4.529-1.398,6.345
		c-0.931,1.817-2.261,3.211-3.99,4.185c-1.728,0.972-3.741,1.471-6.038,1.494H552.773z M556.148,276.244v20.073h3.551
		c2.601,0,4.626-0.809,6.073-2.428c1.447-1.618,2.171-3.923,2.171-6.914v-1.496c0-2.908-0.683-5.169-2.048-6.782
		c-1.365-1.611-3.302-2.431-5.809-2.453H556.148z"/>
	<polygon clip-path="url(#SVGID_2_)" points="590.88,287.248 579.788,287.248 579.788,296.317 592.673,296.317 592.673,299.077 
		576.413,299.077 576.413,273.483 592.497,273.483 592.497,276.243 579.788,276.243 579.788,284.487 590.88,284.487 	"/>
	<path clip-path="url(#SVGID_2_)" d="M604.563,287.669c-2.895-0.831-5.001-1.854-6.319-3.066c-1.319-1.213-1.978-2.71-1.978-4.492
		c0-2.015,0.806-3.682,2.417-5.001c1.611-1.318,3.706-1.977,6.284-1.977c1.758,0,3.325,0.34,4.702,1.019
		c1.377,0.68,2.444,1.618,3.2,2.813c0.756,1.194,1.133,2.502,1.133,3.92h-3.392c0-1.553-0.492-2.773-1.477-3.66
		c-0.984-0.889-2.373-1.332-4.166-1.332c-1.664,0-2.962,0.367-3.893,1.1c-0.932,0.735-1.398,1.753-1.398,3.056
		c0,1.046,0.443,1.929,1.327,2.65c0.885,0.722,2.391,1.382,4.518,1.981c2.127,0.599,3.791,1.259,4.992,1.979
		c1.201,0.722,2.092,1.563,2.672,2.523s0.87,2.092,0.87,3.392c0,2.075-0.808,3.736-2.426,4.984
		c-1.617,1.248-3.779,1.872-6.486,1.872c-1.758,0-3.398-0.337-4.922-1.012c-1.523-0.674-2.698-1.597-3.524-2.769
		c-0.826-1.171-1.239-2.501-1.239-3.99h3.392c0,1.547,0.571,2.77,1.714,3.665c1.143,0.897,2.669,1.345,4.579,1.345
		c1.781,0,3.147-0.362,4.096-1.09c0.949-0.726,1.424-1.717,1.424-2.971c0-1.253-0.44-2.223-1.319-2.909
		C608.464,289.015,606.872,288.338,604.563,287.669"/>
	<path clip-path="url(#SVGID_2_)" d="M637.47,288.725h-6.012v10.353h-3.393v-25.593h8.473c2.883,0,5.101,0.656,6.653,1.968
		c1.553,1.313,2.33,3.224,2.33,5.731c0,1.593-0.431,2.981-1.292,4.166c-0.862,1.183-2.06,2.067-3.595,2.653l6.012,10.863v0.211
		h-3.622L637.47,288.725z M631.458,285.965h5.186c1.675,0,3.008-0.435,3.999-1.304c0.99-0.869,1.485-2.03,1.485-3.486
		c0-1.585-0.472-2.801-1.415-3.646c-0.943-0.845-2.306-1.273-4.087-1.286h-5.168V285.965z"/>
	<polygon clip-path="url(#SVGID_2_)" points="665.083,287.248 653.991,287.248 653.991,296.317 666.876,296.317 666.876,299.077 
		650.616,299.077 650.616,273.483 666.7,273.483 666.7,276.243 653.991,276.243 653.991,284.487 665.083,284.487 	"/>
	<path clip-path="url(#SVGID_2_)" d="M689.523,295.72c-0.867,1.242-2.077,2.172-3.63,2.786c-1.553,0.615-3.36,0.924-5.423,0.924
		c-2.086,0-3.937-0.489-5.554-1.469c-1.618-0.978-2.869-2.37-3.753-4.175c-0.885-1.804-1.339-3.896-1.363-6.275v-2.231
		c0-3.856,0.9-6.844,2.699-8.965c1.798-2.121,4.327-3.183,7.585-3.183c2.671,0,4.822,0.684,6.451,2.049
		c1.629,1.364,2.625,3.302,2.988,5.81h-3.375c-0.633-3.399-2.648-5.098-6.047-5.098c-2.262,0-3.975,0.795-5.141,2.384
		s-1.755,3.891-1.767,6.905v2.094c0,2.873,0.656,5.157,1.969,6.852c1.313,1.695,3.088,2.542,5.326,2.542
		c1.265,0,2.373-0.14,3.322-0.421c0.949-0.28,1.734-0.754,2.356-1.42v-5.735h-5.924v-2.76h9.281V295.72z"/>
	<rect x="695.395" y="273.484" clip-path="url(#SVGID_2_)" width="3.375" height="25.594"/>
	<path clip-path="url(#SVGID_2_)" d="M724.681,287.106c0,2.508-0.421,4.697-1.265,6.566c-0.844,1.869-2.039,3.296-3.586,4.279
		c-1.547,0.984-3.352,1.478-5.414,1.478c-2.016,0-3.803-0.496-5.362-1.486c-1.558-0.99-2.768-2.401-3.629-4.235
		c-0.862-1.834-1.304-3.958-1.328-6.372v-1.847c0-2.461,0.428-4.635,1.284-6.521c0.855-1.887,2.065-3.331,3.63-4.333
		c1.564-1.002,3.354-1.503,5.37-1.503c2.05,0,3.858,0.495,5.422,1.484c1.565,0.99,2.769,2.427,3.613,4.308
		c0.844,1.881,1.265,4.068,1.265,6.564V287.106z M721.324,285.455c0-3.035-0.609-5.364-1.828-6.987
		c-1.219-1.623-2.924-2.436-5.115-2.436c-2.133,0-3.812,0.813-5.036,2.436c-1.225,1.623-1.855,3.876-1.89,6.758v1.881
		c0,2.942,0.618,5.253,1.854,6.936c1.237,1.682,2.939,2.521,5.107,2.521c2.179,0,3.867-0.794,5.062-2.381
		c1.196-1.588,1.811-3.865,1.846-6.83V285.455z"/>
	<polygon clip-path="url(#SVGID_2_)" points="749.529,299.077 746.136,299.077 733.252,279.354 733.252,299.077 729.859,299.077 
		729.859,273.483 733.252,273.483 746.172,293.295 746.172,273.483 749.529,273.483 	"/>
</g>
</svg>
