<?xml version="1.0" encoding="UTF-8" standalone="no"?>
<!-- Created with Inkscape (http://www.inkscape.org/) -->

<svg
   width="100pt"
   height="100pt"
   viewBox="0 0 35.277779 35.277777"
   version="1.1"
   id="svg5"
   inkscape:version="1.1.1 (3bf5ae0d25, 2021-09-20)"
   sodipodi:docname="checkmark.svg"
   xmlns:inkscape="http://www.inkscape.org/namespaces/inkscape"
   xmlns:sodipodi="http://sodipodi.sourceforge.net/DTD/sodipodi-0.dtd"
   xmlns="http://www.w3.org/2000/svg"
   xmlns:svg="http://www.w3.org/2000/svg">
  <sodipodi:namedview
     id="namedview7"
     pagecolor="#ffffff"
     bordercolor="#111111"
     borderopacity="1"
     inkscape:pageshadow="0"
     inkscape:pageopacity="0"
     inkscape:pagecheckerboard="1"
     inkscape:document-units="px"
     showgrid="false"
     units="pt"
     width="100pt"
     inkscape:zoom="4"
     inkscape:cx="98.125"
     inkscape:cy="43.75"
     inkscape:window-width="1920"
     inkscape:window-height="1163"
     inkscape:window-x="1920"
     inkscape:window-y="0"
     inkscape:window-maximized="1"
     inkscape:current-layer="layer1" />
  <defs
     id="defs2" />
  <g
     inkscape:label="Layer 1"
     inkscape:groupmode="layer"
     id="layer1">
    <text
       xml:space="preserve"
       style="font-style:normal;font-weight:normal;font-size:10.5833px;line-height:1.25;font-family:sans-serif;fill:#000000;fill-opacity:1;stroke:none;stroke-width:0.264583"
       x="-10.797539"
       y="2.5840843"
       id="text5246"><tspan
         sodipodi:role="line"
         id="tspan5244"
         style="stroke-width:0.264583"
         x="-10.797539"
         y="2.5840843">✓</tspan></text>
    <path
       d="m -8.2388659,6.5207648 q 0.2015374,0 0.3048899,0.330728 0.2067051,0.620115 0.2945548,0.620115 0.067179,0 0.1395259,-0.103353 1.4521031,-2.325432 2.6871655,-3.762032 0.320393,-0.372069 1.018023,-0.372069 0.1653641,0 0.2222081,0.03101 0.05684,0.03101 0.05684,0.07751 0,0.07235 -0.170532,0.28422 -1.9947041,2.397778 -3.7000208,5.064274 -0.1188554,0.186034 -0.4857569,0.186034 -0.3720692,0 -0.4392483,-0.03101 -0.1756953,-0.07751 -0.4134062,-0.790646 -0.2687166,-0.790647 -0.2687166,-0.992185 0,-0.21704 0.3617339,-0.418577 0.222208,-0.124023 0.3927397,-0.124023 z"
       id="path6342"
       style="font-size:10.5833px;line-height:1.25;stroke-width:0.264583" />
    <g
       id="g6831"
       transform="matrix(1.7671873,0,0,1.7671873,-12.989165,-12.618991)">
      <path
         id="path1948"
         style="stroke-width:0.264583;stroke-dashoffset:3.9"
         d="m 15.570643,11.336898 a 7.2651267,7.2651267 0 0 0 -7.2651901,7.26519 7.2651267,7.2651267 0 0 0 1.9910931,4.989875 C 10.16935,23.265453 10.038599,22.902357 9.9038049,22.497974 9.1985307,20.42284 8.8459882,19.12071 8.8459882,18.591752 c 0,-0.569643 0.4747951,-1.119007 1.4242028,-1.647961 0.583207,-0.325511 1.098581,-0.487826 1.546159,-0.487826 0.528955,0 0.928667,0.4337 1.199927,1.30173 0.542518,1.627555 0.929048,2.441195 1.159619,2.441195 0.176318,0 0.359438,-0.135433 0.549321,-0.406694 1.653409,-2.647809 3.253509,-5.075043 4.799707,-7.283794 a 7.2651267,7.2651267 0 0 0 -3.954281,-1.171504 z m 6.362403,3.75791 c -2.342098,3.219506 -4.595324,6.520893 -6.759795,9.905339 -0.228384,0.357471 -0.63241,0.583788 -1.209745,0.679546 a 7.2651267,7.2651267 0 0 0 1.607137,0.187584 7.2651267,7.2651267 0 0 0 7.26519,-7.265189 7.2651267,7.2651267 0 0 0 -0.902787,-3.50728 z" />
      <path
         d="m 11.658812,17.178337 c 0.403075,0 0.707965,0.330728 0.91467,0.992184 0.41341,1.24023 1.237132,2.918678 1.412831,2.918678 0.134358,0 0.273884,-0.103353 0.418578,-0.310059 2.904206,-4.650864 5.591372,-8.412896 8.061497,-11.2860963 0.640786,-0.744139 1.658809,-1.116208 3.054069,-1.116208 0.330728,0 0.552936,0.03101 0.666624,0.09303 0.11368,0.06202 0.17052,0.13953 0.17052,0.23253 0,0.1447 -0.170532,0.42892 -0.511596,0.852661 -3.989408,4.7955563 -7.689429,9.8598303 -11.100063,15.1928223 -0.237711,0.372068 -0.723467,0.558102 -1.45727,0.558102 -0.744139,0 -1.183387,-0.03101 -1.317745,-0.09303 -0.35139,-0.15502 -0.764796,-0.945666 -1.240218,-2.371938 -0.537433,-1.581294 -1.3353164,-3.631812 -1.3353164,-4.034888 0,-0.43408 0.3617339,-0.852657 1.0852014,-1.255731 0.444416,-0.248046 0.837155,-0.372069 1.178218,-0.372069 z"
         id="path6342-5"
         style="font-size:10.5833px;line-height:1.25;stroke-width:0.793749"
         sodipodi:nodetypes="ccsccsssccsccsccc" />
    </g>
  </g>
</svg>
