<?xml version="1.0" encoding="UTF-8" standalone="no"?>
<!-- Created with Inkscape (http://www.inkscape.org/) -->

<svg
   width="100pt"
   height="100pt"
   viewBox="0 0 35.277779 35.277777"
   version="1.1"
   id="svg5"
   sodipodi:docname="checkmark_animated.svg"
   inkscape:version="1.1.1 (3bf5ae0d25, 2021-09-20)"
   xmlns:inkscape="http://www.inkscape.org/namespaces/inkscape"
   xmlns:sodipodi="http://sodipodi.sourceforge.net/DTD/sodipodi-0.dtd"
   xmlns="http://www.w3.org/2000/svg"
   xmlns:svg="http://www.w3.org/2000/svg">
  <sodipodi:namedview
     id="namedview9"
     pagecolor="#ffffff"
     bordercolor="#111111"
     borderopacity="1"
     inkscape:pageshadow="0"
     inkscape:pageopacity="0"
     inkscape:pagecheckerboard="1"
     inkscape:document-units="pt"
     showgrid="false"
     inkscape:zoom="5.3925"
     inkscape:cx="66.666667"
     inkscape:cy="66.573945"
     inkscape:window-width="1920"
     inkscape:window-height="1163"
     inkscape:window-x="1920"
     inkscape:window-y="0"
     inkscape:window-maximized="1"
     inkscape:current-layer="svg5" />
  <defs
     id="defs2" />
  <g
     id="layer1"
     style="fill:#999999">
    <!-- <path
       id="circle"
       style="stroke-width:0.467568;stroke-dashoffset:3.9;fill:#999999"
       d="M 14.527078,7.4154312 A 12.83884,12.83884 0 0 0 1.6881259,20.254383 12.83884,12.83884 0 0 0 5.2067603,29.072426 C 4.9819812,28.495422 4.7509197,27.853763 4.5127132,27.139143 3.2663616,23.471992 2.643353,21.170885 2.643353,20.236117 c 0,-1.006666 0.8390519,-1.977495 2.5168331,-2.912256 1.030636,-0.575239 1.9413984,-0.86208 2.7323526,-0.86208 0.9347625,0 1.6411285,0.766429 2.1204953,2.300401 0.958731,2.876195 1.641802,4.314049 2.049264,4.314049 0.311587,0 0.635195,-0.239336 0.970753,-0.718705 2.921884,-4.679174 5.74956,-8.968551 8.481982,-12.8718278 a 12.83884,12.83884 0 0 0 -6.987955,-2.070267 z m 11.243557,6.6409308 c -4.138925,5.68947 -8.120798,11.523639 -11.945824,17.504589 -0.403597,0.631718 -1.117586,1.031663 -2.137846,1.200885 a 12.83884,12.83884 0 0 0 2.840113,0.331496 12.83884,12.83884 0 0 0 12.838951,-12.838949 12.83884,12.83884 0 0 0 -1.595394,-6.198021 z" /> -->
    <path
       d="m 7.6141395,17.738348 c 0.712309,0 1.2511068,0.584458 1.6163932,1.753375 0.7305729,2.191719 2.1862443,5.157851 2.4967373,5.157851 0.237435,0 0.484004,-0.182644 0.739705,-0.547933 5.132276,-8.218947 9.881002,-14.8671627 14.246176,-19.9446457 1.132388,-1.315033 2.931426,-1.9725486 5.397112,-1.9725486 0.584458,0 0.977141,0.0548 1.178049,0.1644014 0.200894,0.109601 0.301341,0.2465756 0.301341,0.4109241 0,0.255712 -0.301362,0.7579819 -0.904086,1.5068117 C 25.635536,12.74123 19.096906,21.690751 13.069676,31.115146 c -0.420079,0.657514 -1.278501,0.986271 -2.575269,0.986271 -1.3150326,0 -2.0912661,-0.0548 -2.3287018,-0.164401 -0.620972,-0.27395 -1.3515378,-1.671169 -2.1916975,-4.191659 -0.9497448,-2.794443 -2.3597542,-6.418092 -2.3597542,-7.130403 0,-0.7671 0.6392515,-1.506804 1.9177541,-2.219112 0.7853663,-0.438343 1.4794097,-0.657515 2.0821319,-0.657515 z"
       id="checkmark"
       class="checkmark"
       style="font-size:10.5833px;line-height:1.25;stroke-width:1.4027;fill:#999999" />
    <style
       type="text/css"
       id="style5">
        @keyframes appear {
            from { opacity: 0%; }
            to   { opacity: 100%; }
        }
        .checkmark {
            animation: appear 1s linear forwards;
        }
    </style>
  </g>
</svg>
