<?xml version="1.0" encoding="UTF-8" standalone="no"?>
<!-- Created with Inkscape (http://www.inkscape.org/) -->

<svg
   width="100"
   height="100"
   viewBox="0 0 26.458333 26.458333"
   version="1.1"
   id="svg5"
   inkscape:version="1.1.1 (3bf5ae0d25, 2021-09-20)"
   sodipodi:docname="compare.svg"
   xmlns:inkscape="http://www.inkscape.org/namespaces/inkscape"
   xmlns:sodipodi="http://sodipodi.sourceforge.net/DTD/sodipodi-0.dtd"
   xmlns="http://www.w3.org/2000/svg"
   xmlns:svg="http://www.w3.org/2000/svg">
  <sodipodi:namedview
     id="namedview7"
     pagecolor="#ffffff"
     bordercolor="#111111"
     borderopacity="1"
     inkscape:pageshadow="0"
     inkscape:pageopacity="0"
     inkscape:pagecheckerboard="1"
     inkscape:document-units="px"
     showgrid="false"
     units="px"
     width="100px"
     inkscape:zoom="5.1241863"
     inkscape:cx="19.808023"
     inkscape:cy="36.396023"
     inkscape:window-width="1872"
     inkscape:window-height="1016"
     inkscape:window-x="0"
     inkscape:window-y="27"
     inkscape:window-maximized="1"
     inkscape:current-layer="g4465" />
  <defs
     id="defs2" />
  <g
     inkscape:label="Layer 1"
     inkscape:groupmode="layer"
     id="layer1">
    <g
       id="g4465"
       transform="translate(0.30072098,0.97905884)">
      <rect
         style="fill:#ececec;stroke:#3c3c3c;stroke-width:0.153164;stroke-miterlimit:4;stroke-dasharray:none;stroke-dashoffset:3.9;stroke-opacity:1"
         id="rect870"
         width="7.905004"
         height="3.5611541"
         x="1.0426903"
         y="2.2333465"
         rx="0.3952502" />
      <rect
         style="fill:#ececec;stroke:#3c3c3c;stroke-width:0.153164;stroke-miterlimit:4;stroke-dasharray:none;stroke-dashoffset:3.9;stroke-opacity:1"
         id="rect870-3"
         width="7.905004"
         height="3.5611541"
         x="16.909195"
         y="2.2334652"
         rx="0.3952502" />
      <path
         id="path1346"
         style="fill:#cccccc;stroke:#3c3c3c;stroke-width:0.171832;stroke-dashoffset:3.9"
         inkscape:transform-center-x="-0.90761442"
         inkscape:transform-center-y="-0.20575411"
         d="m 8.4151932,4.7971921 c 0,0.300864 0.253759,0.563477 0.567347,0.543075 l 5.0702858,-0.329876 c 0.04475,-0.0029 0.08826,-0.01011 0.130017,-0.02086 l -7.63e-4,1.132111 1.898542,-1.048316 1.898542,-1.048318 -1.897434,-1.0497328 -1.897802,-1.0493781 -3.7e-4,1.0568029 c -0.04195,-0.010523 -0.08576,-0.017522 -0.130756,-0.0198 L 8.9825162,2.7065661 c -0.313873,-0.015873 -0.567346,0.2422108 -0.567346,0.5430742 z" />
      <rect
         style="fill:#ececec;stroke:#3c3c3c;stroke-width:0.153164;stroke-miterlimit:4;stroke-dasharray:none;stroke-dashoffset:3.9;stroke-opacity:1"
         id="rect870-6"
         width="7.905004"
         height="3.5611541"
         x="1.0426902"
         y="10.459693"
         rx="0.3952502" />
      <rect
         style="fill:#ececec;stroke:#3c3c3c;stroke-width:0.153164;stroke-miterlimit:4;stroke-dasharray:none;stroke-dashoffset:3.9;stroke-opacity:1"
         id="rect870-3-4"
         width="7.905004"
         height="3.5611541"
         x="16.909197"
         y="10.459811"
         rx="0.3952502" />
      <path
         id="path1346-3"
         style="fill:#cccccc;stroke:#3c3c3c;stroke-width:0.171832;stroke-dashoffset:3.9"
         inkscape:transform-center-x="0.90761448"
         inkscape:transform-center-y="0.20575389"
         d="m 17.545127,11.40479 c 0,-0.300864 -0.253759,-0.563477 -0.567347,-0.543075 l -5.070286,0.329876 c -0.04475,0.0029 -0.08826,0.01011 -0.130017,0.02086 l 7.63e-4,-1.132111 -1.8985416,1.048316 -1.898542,1.048318 1.897434,1.049733 1.8978016,1.049378 3.7e-4,-1.056803 c 0.04195,0.01052 0.08576,0.01752 0.130756,0.0198 l 5.070286,0.256334 c 0.313873,0.01587 0.567346,-0.242211 0.567346,-0.543074 z" />
      <rect
         style="fill:#ececec;stroke:#3c3c3c;stroke-width:0.153164;stroke-miterlimit:4;stroke-dasharray:none;stroke-dashoffset:3.9;stroke-opacity:1"
         id="rect870-33"
         width="7.905004"
         height="3.5611541"
         x="1.0426902"
         y="18.686041"
         rx="0.3952502" />
      <rect
         style="fill:#ececec;stroke:#3c3c3c;stroke-width:0.153164;stroke-miterlimit:4;stroke-dasharray:none;stroke-dashoffset:3.9;stroke-opacity:1"
         id="rect870-3-8"
         width="7.905004"
         height="3.5611541"
         x="16.909195"
         y="18.686161"
         rx="0.3952502" />
      <path
         id="path1346-6"
         style="fill:#cccccc;stroke:#3c3c3c;stroke-width:0.171832;stroke-dashoffset:3.9"
         inkscape:transform-center-x="-0.90761442"
         inkscape:transform-center-y="-0.20575411"
         d="m 8.4151931,21.249886 c 0,0.300864 0.253759,0.563477 0.567347,0.543075 l 5.0702859,-0.329876 c 0.04475,-0.0029 0.08826,-0.01011 0.130017,-0.02086 l -7.63e-4,1.132111 1.898542,-1.048316 1.898542,-1.048318 -1.897434,-1.049733 -1.897802,-1.049378 -3.7e-4,1.056803 c -0.04195,-0.01052 -0.08576,-0.01752 -0.130756,-0.0198 L 8.9825161,19.15926 c -0.313873,-0.01587 -0.567346,0.242211 -0.567346,0.543074 z" />
    </g>
    <path
       id="path1346-5"
       style="fill:#cccccc;stroke:#3c3c3c;stroke-width:0.198502;stroke-dashoffset:3.9"
       inkscape:transform-center-x="-0.3007272"
       inkscape:transform-center-y="0.82872247"
       d="m 35.410655,15.284259 c -0.439738,0 -0.82357,0.231696 -0.79375,0.518018 l 0.482141,4.629448 c 0.0043,0.04086 0.01477,0.08059 0.03049,0.118713 l -1.654678,-6.75e-4 1.532205,1.733472 1.532206,1.733472 1.534273,-1.73246 1.533757,-1.732798 -1.544609,-3.37e-4 c 0.01538,-0.0383 0.02561,-0.0783 0.02894,-0.119387 l 0.374654,-4.629448 c 0.0232,-0.286583 -0.354012,-0.518018 -0.79375,-0.518018 z" />
  </g>
</svg>
