<?xml version="1.0" encoding="UTF-8" standalone="no"?>
<!-- Created with Inkscape (http://www.inkscape.org/) -->

<svg
   width="100"
   height="100"
   viewBox="0 0 26.458333 26.458333"
   version="1.1"
   id="svg5"
   inkscape:version="1.1.1 (3bf5ae0d25, 2021-09-20)"
   sodipodi:docname="compare_internal.svg"
   xmlns:inkscape="http://www.inkscape.org/namespaces/inkscape"
   xmlns:sodipodi="http://sodipodi.sourceforge.net/DTD/sodipodi-0.dtd"
   xmlns="http://www.w3.org/2000/svg"
   xmlns:svg="http://www.w3.org/2000/svg">
  <sodipodi:namedview
     id="namedview7"
     pagecolor="#ffffff"
     bordercolor="#111111"
     borderopacity="1"
     inkscape:pageshadow="0"
     inkscape:pageopacity="0"
     inkscape:pagecheckerboard="1"
     inkscape:document-units="px"
     showgrid="false"
     units="px"
     width="100px"
     inkscape:zoom="5.1241863"
     inkscape:cx="19.61287"
     inkscape:cy="36.396023"
     inkscape:window-width="1920"
     inkscape:window-height="1136"
     inkscape:window-x="0"
     inkscape:window-y="27"
     inkscape:window-maximized="1"
     inkscape:current-layer="layer1" />
  <defs
     id="defs2" />
  <g
     inkscape:label="Layer 1"
     inkscape:groupmode="layer"
     id="layer1">
    <g
       id="g4560"
       transform="translate(0.30072098,1.0475144)">
      <rect
         style="fill:#ececec;stroke:#3c3c3c;stroke-width:0.153164;stroke-miterlimit:4;stroke-dasharray:none;stroke-dashoffset:3.9;stroke-opacity:1"
         id="rect870"
         width="7.905004"
         height="3.5611541"
         x="1.0426903"
         y="4.87918"
         rx="0.3952502" />
      <rect
         style="fill:#ececec;stroke:#3c3c3c;stroke-width:0.153164;stroke-miterlimit:4;stroke-dasharray:none;stroke-dashoffset:3.9;stroke-opacity:1"
         id="rect870-3"
         width="7.905004"
         height="3.5611541"
         x="16.909195"
         y="4.8792987"
         rx="0.3952502" />
      <rect
         style="fill:#ececec;stroke:#3c3c3c;stroke-width:0.153164;stroke-miterlimit:4;stroke-dasharray:none;stroke-dashoffset:3.9;stroke-opacity:1"
         id="rect870-6"
         width="7.905004"
         height="3.5611541"
         x="1.0426902"
         y="10.459693"
         rx="0.3952502" />
      <rect
         style="fill:#ececec;stroke:#3c3c3c;stroke-width:0.153164;stroke-miterlimit:4;stroke-dasharray:none;stroke-dashoffset:3.9;stroke-opacity:1"
         id="rect870-3-4"
         width="7.905004"
         height="3.5611541"
         x="16.909197"
         y="10.459811"
         rx="0.3952502" />
      <path
         id="path1346"
         style="fill:#cccccc;stroke:#3c3c3c;stroke-width:0.171832;stroke-dashoffset:3.9"
         inkscape:transform-center-x="-0.58580544"
         inkscape:transform-center-y="-0.073409966"
         d="M 8.8310866,6.2632939 C 8.6572019,6.5088204 8.7125099,6.8697917 8.9802116,7.0343808 l 4.3283664,2.6611755 c 0.0382,0.02349 0.07787,0.04276 0.11816,0.05812 l -0.654928,0.9234427 2.155221,0.241763 2.155222,0.241763 -0.941747,-1.9532804 -0.942252,-1.9532047 -0.611083,0.8622127 c -0.02815,-0.032833 -0.05986,-0.063865 -0.09527,-0.091728 L 10.502342,4.8850791 C 10.255374,4.6907222 9.8993617,4.754842 9.7254777,5.0003679 Z" />
      <path
         id="path1346-3"
         style="fill:#cccccc;stroke:#3c3c3c;stroke-width:0.171832;stroke-dashoffset:3.9"
         inkscape:transform-center-x="0.31272671"
         inkscape:transform-center-y="0.29354094"
         d="m 16.553086,12.218979 c -0.181343,-0.240071 -0.542114,-0.29667 -0.780041,-0.09138 l -3.846946,3.31928 c -0.03396,0.02929 -0.06433,0.06127 -0.09117,0.09501 l -0.681759,-0.903815 -0.883058,1.980817 -0.8830566,1.980818 2.1467496,-0.306035 2.14683,-0.30654 -0.636681,-0.843487 c 0.03981,-0.01689 0.07899,-0.03771 0.116269,-0.06301 l 4.200279,-2.85152 c 0.260017,-0.17652 0.306717,-0.535231 0.125375,-0.775301 z" />
      <rect
         style="fill:#ececec;stroke:#3c3c3c;stroke-width:0.153164;stroke-miterlimit:4;stroke-dasharray:none;stroke-dashoffset:3.9;stroke-opacity:1"
         id="rect870-33"
         width="7.905004"
         height="3.5611541"
         x="1.0426902"
         y="16.040205"
         rx="0.3952502" />
      <rect
         style="fill:#ececec;stroke:#3c3c3c;stroke-width:0.153164;stroke-miterlimit:4;stroke-dasharray:none;stroke-dashoffset:3.9;stroke-opacity:1"
         id="rect870-3-8"
         width="7.905004"
         height="3.5611541"
         x="16.909195"
         y="16.040325"
         rx="0.3952502" />
    </g>
    <path
       id="path1346-5"
       style="fill:#cccccc;stroke:#3c3c3c;stroke-width:0.198502;stroke-dashoffset:3.9"
       inkscape:transform-center-x="-0.3007272"
       inkscape:transform-center-y="0.82872247"
       d="m 35.410655,15.284259 c -0.439738,0 -0.82357,0.231696 -0.79375,0.518018 l 0.482141,4.629448 c 0.0043,0.04086 0.01477,0.08059 0.03049,0.118713 l -1.654678,-6.75e-4 1.532205,1.733472 1.532206,1.733472 1.534273,-1.73246 1.533757,-1.732798 -1.544609,-3.37e-4 c 0.01538,-0.0383 0.02561,-0.0783 0.02894,-0.119387 l 0.374654,-4.629448 c 0.0232,-0.286583 -0.354012,-0.518018 -0.79375,-0.518018 z" />
  </g>
</svg>
