<svg 
    class="svg-icon" 
    style="width:1em; height:1em; vertical-align:middle; overflow:hidden; fill: #5aa4d9; "
    viewBox="0 0 1024 1024" version="1.1" xmlns="http://www.w3.org/2000/svg">
    <path
        d="M298.666667 426.666667a42.666667 42.666667 0 1 0 42.666666 42.666666 42.666667 42.666667 0 0 0-42.666666-42.666666z m512-170.666667h-42.666667V128a42.666667 42.666667 0 0 0-42.666667-42.666667H298.666667a42.666667 42.666667 0 0 0-42.666667 42.666667v128H213.333333a128 128 0 0 0-128 128v256a128 128 0 0 0 128 128h42.666667v128a42.666667 42.666667 0 0 0 42.666667 42.666667h426.666666a42.666667 42.666667 0 0 0 42.666667-42.666667v-128h42.666667a128 128 0 0 0 128-128V384a128 128 0 0 0-128-128zM341.333333 170.666667h341.333334v85.333333H341.333333z m341.333334 682.666666H341.333333v-170.666666h341.333334z m170.666666-213.333333a42.666667 42.666667 0 0 1-42.666666 42.666667h-42.666667v-42.666667a42.666667 42.666667 0 0 0-42.666667-42.666667H298.666667a42.666667 42.666667 0 0 0-42.666667 42.666667v42.666667H213.333333a42.666667 42.666667 0 0 1-42.666666-42.666667V384a42.666667 42.666667 0 0 1 42.666666-42.666667h597.333334a42.666667 42.666667 0 0 1 42.666666 42.666667z" />
</svg>