<?xml version="1.0" encoding="UTF-8" standalone="no"?>
<svg
   width="1066.6667px"
   height="1066.6667px"
   viewBox="0 0 1066.6667 1066.6667"
   version="1.1"
   id="svg4"
   sodipodi:docname="riesgos_simple_white.svg"
   inkscape:version="1.1.1 (3bf5ae0d25, 2021-09-20)"
   xmlns:inkscape="http://www.inkscape.org/namespaces/inkscape"
   xmlns:sodipodi="http://sodipodi.sourceforge.net/DTD/sodipodi-0.dtd"
   xmlns="http://www.w3.org/2000/svg"
   xmlns:svg="http://www.w3.org/2000/svg">
  <defs
     id="defs8" />
  <sodipodi:namedview
     id="namedview6"
     pagecolor="#ffffff"
     bordercolor="#111111"
     borderopacity="1"
     inkscape:pageshadow="0"
     inkscape:pageopacity="0"
     inkscape:pagecheckerboard="1"
     showgrid="false"
     showguides="true"
     inkscape:guide-bbox="true"
     inkscape:zoom="0.47663413"
     inkscape:cx="450.03072"
     inkscape:cy="622.07043"
     inkscape:window-width="1872"
     inkscape:window-height="1136"
     inkscape:window-x="1920"
     inkscape:window-y="27"
     inkscape:window-maximized="1"
     inkscape:current-layer="svg4">
    <sodipodi:guide
       position="5.934168,520.72324"
       orientation="0,-1"
       id="guide981" />
    <sodipodi:guide
       position="104.90226,808.60714"
       orientation="1,0"
       id="guide983" />
    <sodipodi:guide
       position="961.95373,572.57705"
       orientation="1,0"
       id="guide985" />
  </sodipodi:namedview>
  <path
     d="m 522.66668,1003.1708 c -9.9483,-1.1882 -25.01938,-4.94234 -32.66666,-8.13729 C 470.24664,986.7808 472.22573,988.652 276.90004,793.55161 174.36171,691.13157 87.881765,603.73335 84.722373,599.33335 72.636765,582.50206 66.614882,566.98704 63.892582,545.66668 c -3.441728,-26.95473 3.980807,-54.86821 20.829791,-78.33333 3.159392,-4.4 89.639337,-91.79822 192.177667,-194.21826 C 472.22573,78.014702 470.24664,79.885893 490.00002,71.633188 c 25.97826,-10.853387 60.6884,-10.853387 86.66666,0 19.75338,8.252705 17.77429,6.381514 213.09998,201.481902 102.53833,102.42004 189.01828,189.81826 192.17766,194.21826 16.84899,23.46512 24.27148,51.3786 20.82978,78.33333 -2.7223,21.32036 -8.74416,36.83538 -20.82978,53.66667 -3.15938,4.4 -89.63933,91.79822 -192.17766,194.21826 -195.34923,195.12389 -193.3698,193.25247 -213.09998,201.47263 -14.49465,6.03896 -39.74784,9.84866 -54,8.14656 z m 31.33334,-34.72897 c 4.4,-1.10125 12.2,-4.14725 17.33333,-6.76887 8.67495,-4.43032 22.6036,-18.03682 197.45319,-192.88642 174.8496,-174.84959 188.4561,-188.77824 192.88642,-197.45319 6.46624,-12.6614 9.34207,-24.3592 9.34207,-38 0,-13.6408 -2.87583,-25.3386 -9.34207,-38 C 957.24264,486.6584 943.63614,472.72975 768.78654,297.88016 593.93695,123.03057 580.0083,109.42406 571.33335,104.99373 c -24.68176,-12.605067 -51.31824,-12.605067 -76,0 -8.67495,4.43033 -22.6036,18.03684 -197.45319,192.88643 -174.84959,174.84959 -188.4561,188.77824 -192.88643,197.45319 -12.605067,24.68176 -12.605067,51.31824 0,76 4.43033,8.67495 18.03684,22.6036 192.88643,197.45319 175.01589,175.01589 188.76999,188.4512 197.45319,192.87653 19.61124,9.99472 37.54043,12.06639 58.66667,6.77876 z M 523.14008,938.68895 C 509.59171,935.82388 510.26691,936.45878 347.74252,773.75961 243.09359,668.99815 134.53089,559.47729 133.95545,557.09625 c -1.31235,-5.43016 0.49554,-9.14218 5.46354,-11.21795 6.82247,-2.85061 777.08564,-2.81744 783.90974,0.0339 4.95031,2.06837 6.90346,6.34252 5.32746,11.6583 -0.50487,1.70292 -123.77626,130.0169 -210.38086,216.6977 C 579.0531,913.61292 559.9533,932.2552 553.396,935.19795 c -8.34221,3.74376 -21.74684,5.29043 -30.25592,3.49101 z"
     id="path2"
     sodipodi:nodetypes="sssssssssssssssssssssssssssssssssssssssss"
     style="fill:#ffffff" />
</svg>
