<?xml version="1.0" encoding="UTF-8" standalone="no"?>
<svg
   width="1066.6667px"
   height="1066.6667px"
   viewBox="0 0 1066.6667 1066.6667"
   version="1.1"
   id="svg4"
   sodipodi:docname="riesgos_20.svg"
   inkscape:version="1.1.1 (3bf5ae0d25, 2021-09-20)"
   xmlns:inkscape="http://www.inkscape.org/namespaces/inkscape"
   xmlns:sodipodi="http://sodipodi.sourceforge.net/DTD/sodipodi-0.dtd"
   xmlns="http://www.w3.org/2000/svg"
   xmlns:svg="http://www.w3.org/2000/svg">
  <defs
     id="defs8" />
  <sodipodi:namedview
     id="namedview6"
     pagecolor="#ffffff"
     bordercolor="#111111"
     borderopacity="1"
     inkscape:pageshadow="0"
     inkscape:pageopacity="0"
     inkscape:pagecheckerboard="1"
     showgrid="false"
     inkscape:zoom="0.67406245"
     inkscape:cx="533.33337"
     inkscape:cy="532.5916"
     inkscape:window-width="1920"
     inkscape:window-height="1163"
     inkscape:window-x="1920"
     inkscape:window-y="110"
     inkscape:window-maximized="1"
     inkscape:current-layer="svg4" />
  <path
     id="path2"
     d="M 533.33398 63.492188 C 518.16188 63.492188 502.98913 66.206119 490 71.632812 C 470.24662 79.885518 472.22608 78.014846 276.90039 273.11523 C 174.36206 375.53527 87.882048 462.93398 84.722656 467.33398 C 67.873672 490.7991 60.45085 518.71129 63.892578 545.66602 C 66.614878 566.98638 72.637048 582.50269 84.722656 599.33398 C 87.882048 603.73398 174.36206 691.13074 276.90039 793.55078 C 472.22608 988.65117 470.24662 986.78049 490 995.0332 C 497.64728 998.22815 512.71772 1001.9817 522.66602 1003.1699 C 536.91818 1004.872 562.17137 1001.0624 576.66602 995.02344 C 596.3962 986.80328 594.41835 988.67467 789.76758 793.55078 C 892.30591 691.13074 978.78398 603.73398 981.94336 599.33398 C 994.02898 582.50269 1000.0511 566.98638 1002.7734 545.66602 C 1006.2151 518.71129 998.79235 490.7991 981.94336 467.33398 C 978.78398 462.93398 892.30591 375.53527 789.76758 273.11523 C 594.44189 78.014846 596.4194 79.885518 576.66602 71.632812 C 563.67689 66.206119 548.50608 63.492188 533.33398 63.492188 z M 533.33398 95.539062 C 546.16354 95.539062 558.9931 98.691607 571.33398 104.99414 C 580.00893 109.42447 593.93752 123.03127 768.78711 297.88086 C 943.63671 472.73045 957.24351 486.65903 961.67383 495.33398 C 968.14007 507.99538 971.01562 519.69318 971.01562 533.33398 C 971.01563 546.97478 968.14007 558.67258 961.67383 571.33398 C 957.24351 580.00893 943.63671 593.93752 768.78711 768.78711 C 593.93752 943.63671 580.00893 957.24351 571.33398 961.67383 C 566.20065 964.29545 558.4 967.34016 554 968.44141 C 532.87376 973.72904 514.94522 971.65683 495.33398 961.66211 C 486.65078 957.23678 472.89675 943.803 297.88086 768.78711 C 123.03127 593.93752 109.42447 580.00893 104.99414 571.33398 C 92.389074 546.65222 92.389074 520.01574 104.99414 495.33398 C 109.42447 486.65903 123.03127 472.73045 297.88086 297.88086 C 472.73045 123.03127 486.65903 109.42447 495.33398 104.99414 C 507.67486 98.691607 520.50442 95.539062 533.33398 95.539062 z M 607.7207 449.48828 C 586.0098 448.53349 567.75609 458.18294 558.69141 475.95117 C 549.88955 493.20441 549.8743 529.43268 558.66211 546.6582 C 564.85379 558.79489 577.48739 568.86039 590.32812 571.88672 C 598.08084 573.71389 614.40689 573.48404 624.19141 571.41016 C 633.62757 569.41012 641.9512 565.73207 649 560.44727 L 653.33398 557.19727 L 653.33398 531.93164 L 653.33398 506.66602 L 628.66602 506.66602 L 604 506.66602 L 604 516.66602 L 604 526.66602 L 614 526.66602 L 624 526.66602 L 624 535.96875 C 624 544.28801 623.66617 545.49131 620.83594 547.3457 C 616.32165 550.30358 605.35767 551.31094 599.18359 549.33594 C 586.46313 545.26684 582.00977 535.41251 582.00977 511.33398 C 582.00977 492.20057 584.38787 483.60945 591.39062 477.46094 C 602.40365 467.79137 618.76872 471.49073 623.26172 484.66602 L 625.08008 490 L 639.13086 490.37695 L 653.17969 490.75586 L 652.42773 485.71094 C 649.64158 467.02931 636.61389 454.02045 617.2207 450.55469 C 613.99474 449.97818 610.82226 449.62468 607.7207 449.48828 z M 717.33398 450.00195 C 704.86803 450.00195 702.48127 450.40065 695.55078 453.64648 C 675.51156 463.03166 666.0561 479.15638 664.46289 506.66602 C 662.502 540.52446 677.39656 565.33765 703.66211 571.9707 C 712.8003 574.27843 730.78995 572.74931 739.06055 568.96289 C 753.27639 562.45468 763.00983 550.38219 767.28906 533.95312 C 769.63507 524.94619 770.00252 499.85012 767.91992 490.81641 C 764.1933 474.65142 752.88048 460.09847 738.98047 453.58594 C 732.20265 450.41034 729.74152 450.00195 717.33398 450.00195 z M 496 450.07031 C 477.38318 450.13224 468.13257 453.12914 459.29492 461.9668 C 452.35124 468.91048 450.21169 475.07301 450.91406 486.10352 C 452.01314 503.36439 461.92605 511.48876 498 524.69531 C 507.34757 528.11743 512 533.09175 512 539.66406 C 512 548.78773 504.06039 553.31128 491.38281 551.41016 C 483.26951 550.1935 477.56706 545.26674 476.49219 538.54492 L 475.66016 533.33398 L 460.98242 533.33398 L 446.30469 533.33398 L 447.12695 539.33789 C 449.29375 555.14635 462.86803 567.88136 482 572.05469 C 484.93333 572.69458 493.57049 573.00343 501.19336 572.74219 C 513.7947 572.31034 515.84819 571.8623 523.80859 567.80078 C 530.71778 564.2756 533.40109 561.97584 536.53711 556.89648 C 541.09665 549.51145 542.53142 538.73112 540.13672 529.83789 C 537.00835 518.21999 524.48465 508.49149 502.66602 500.72852 C 489.22581 495.94655 482.02215 491.54773 480.12305 486.96289 C 474.3136 472.93763 499.44775 464.4019 509.37891 477.02734 C 510.82072 478.8603 512 481.77923 512 483.51367 C 512 486.64069 512.12457 486.66602 526.84766 486.66602 L 541.69531 486.66602 L 540.8418 480.44141 C 539.189 468.38291 531.63188 459.34932 517.92578 453.04883 C 512.25315 450.4412 509.1923 450.02641 496 450.07031 z M 828 450.07031 C 809.38318 450.13224 800.13258 453.12914 791.29492 461.9668 C 784.35124 468.91048 782.21169 475.07301 782.91406 486.10352 C 784.01314 503.36439 793.92605 511.48876 830 524.69531 C 839.34757 528.11743 844 533.09175 844 539.66406 C 844 548.78773 836.06039 553.31128 823.38281 551.41016 C 815.26951 550.1935 809.56705 545.26674 808.49219 538.54492 L 807.66016 533.33398 L 792.98242 533.33398 L 778.30469 533.33398 L 779.12695 539.33789 C 781.29375 555.14635 794.86803 567.88136 814 572.05469 C 816.93333 572.69458 825.57049 573.00343 833.19336 572.74219 C 845.7947 572.31034 847.84819 571.8623 855.80859 567.80078 C 862.71778 564.2756 865.40109 561.97584 868.53711 556.89648 C 873.09665 549.51145 874.53142 538.73112 872.13672 529.83789 C 869.00835 518.21999 856.48465 508.49149 834.66602 500.72852 C 821.22581 495.94655 814.02215 491.54773 812.12305 486.96289 C 806.3136 472.93763 831.44775 464.4019 841.37891 477.02734 C 842.82072 478.8603 844 481.77923 844 483.51367 C 844 486.64069 844.12457 486.66602 858.84766 486.66602 L 873.69531 486.66602 L 872.8418 480.44141 C 871.189 468.38291 863.63188 459.34932 849.92578 453.04883 C 844.25315 450.4412 841.1923 450.02641 828 450.07031 z M 200 451.78906 L 200 511.89453 L 200 572 L 214.66602 572 L 229.33398 572 L 229.33398 550.66602 L 229.33398 529.33398 L 236.6582 529.33398 L 243.98438 529.33398 L 254.66602 550.66602 L 265.34961 572 L 281.44141 572 L 297.53516 572 L 284.70117 547.02148 C 277.64293 533.28356 272.45962 521.84615 273.18164 521.60547 C 273.90365 521.3648 276.98457 519.36379 280.0293 517.1582 C 287.96373 511.41053 292.30066 501.40987 292.28516 488.89062 C 292.26999 476.63656 289.37569 469.4359 281.77344 462.74414 C 271.55708 453.75134 267.51601 452.91066 231.66602 452.31445 L 200 451.78906 z M 308 452 L 308 512 L 308 572 L 322.66602 572 L 337.33398 572 L 337.33398 512 L 337.33398 452 L 322.66602 452 L 308 452 z M 357.33398 452 L 357.33398 512 L 357.33398 572 L 398.66602 572 L 440 572 L 440 561.33398 L 440 550.66602 L 413.33398 550.66602 L 386.66602 550.66602 L 386.66602 536 L 386.66602 521.33398 L 409.33398 521.33398 L 432 521.33398 L 432 510.66602 L 432 500 L 409.33398 500 L 386.66602 500 L 386.66602 486.66602 L 386.66602 473.33398 L 413.33398 473.33398 L 440 473.33398 L 440 462.66602 L 440 452 L 398.66602 452 L 357.33398 452 z M 717.74219 472.16211 C 725.10017 472.64474 732.38256 477.53443 736.43359 486.62305 C 738.38946 491.01108 739.29072 496.50918 739.72266 506.69141 C 740.67862 529.22617 737.04566 540.711 726.77148 547.63477 C 719.10893 552.79857 707.4806 550.84582 701.63477 543.41406 C 692.83472 532.22661 691.12118 498.79188 698.5957 484.14062 C 702.95106 475.6034 710.38421 471.67948 717.74219 472.16211 z M 229.33398 474.66602 L 240.33398 474.66797 C 254.66466 474.67067 259.89224 477.0947 262.625 485 C 265.39458 493.01186 262.65501 501.00747 256 504.33203 L 256 504.33008 C 252.69054 505.98334 248.13482 506.66306 240.33398 506.66406 L 229.33398 506.66602 L 229.33398 490.66602 L 229.33398 474.66602 z M 533.37305 599.75781 C 366.10143 599.74943 198.83116 600.4536 195.41992 601.87891 C 190.45192 603.95468 188.64273 607.66554 189.95508 613.0957 C 190.53052 615.47674 243.09326 668.99831 347.74219 773.75977 C 510.26658 936.45894 509.59225 935.82438 523.14062 938.68945 C 531.6497 940.48887 545.05427 938.94103 553.39648 935.19727 C 559.95378 932.25452 579.05316 913.6123 718.27539 774.26758 C 804.87999 687.58678 876.15138 615.27323 876.65625 613.57031 C 878.23225 608.25453 876.27843 603.98048 871.32812 601.91211 C 867.91607 600.48644 700.64466 599.7662 533.37305 599.75781 z M 487.43164 617.05078 C 494.41725 617.05078 499.83954 618.59026 503.69727 621.66602 C 507.58106 624.74178 509.52148 629.02943 509.52148 634.5293 C 509.52148 637.70931 508.70073 640.68039 507.05859 643.44336 C 505.41645 646.18027 501.96254 649.85512 496.69727 654.46875 L 484.22461 665.41602 L 509.91406 665.41602 L 509.91406 676.48047 L 467.49219 676.48047 L 467.49219 665.41602 L 488.80078 646.60938 C 490.70358 644.88904 492.11114 643.20855 493.02344 641.56641 C 493.93574 639.92427 494.39062 638.21778 494.39062 636.44531 C 494.39063 633.70841 493.4659 631.50414 491.61523 629.83594 C 489.79063 628.16773 487.35437 627.33398 484.30469 627.33398 C 481.95877 627.33398 479.39059 627.84281 476.60156 628.85938 C 473.81253 629.84987 470.82846 631.33541 467.64844 633.31641 L 467.64844 620.49219 C 471.03698 619.37136 474.38497 618.52462 477.69531 617.95117 C 481.00566 617.35166 484.25163 617.05078 487.43164 617.05078 z M 575.16797 617.05078 C 582.8313 617.05078 588.74941 619.68395 592.91992 624.94922 C 597.09044 630.18843 599.17578 637.65707 599.17578 647.35352 C 599.17578 657.0239 597.09044 664.49059 592.91992 669.75586 C 588.74941 674.99507 582.8313 677.61523 575.16797 677.61523 C 567.47858 677.61523 561.54942 674.99507 557.37891 669.75586 C 553.20839 664.49059 551.12305 657.0239 551.12305 647.35352 C 551.12305 637.65707 553.20839 630.18843 557.37891 624.94922 C 561.54942 619.68395 567.47858 617.05078 575.16797 617.05078 z M 575.16797 627.33398 C 571.93582 627.33398 569.62953 628.83252 568.24805 631.83008 C 566.86657 634.80156 566.17578 639.93792 566.17578 647.23633 C 566.17578 654.61293 566.86657 659.81232 568.24805 662.83594 C 569.62953 665.85956 571.93582 667.37109 575.16797 667.37109 C 578.37406 667.37109 580.6693 665.85956 582.05078 662.83594 C 583.43227 659.81232 584.12305 654.61293 584.12305 647.23633 C 584.12305 639.93792 583.43227 634.80156 582.05078 631.83008 C 580.69537 628.83252 578.40012 627.33398 575.16797 627.33398 z M 525.04492 661.34961 L 539.11914 661.34961 L 539.11914 676.48047 L 525.04492 676.48047 L 525.04492 661.34961 z " />
  <text
     xml:space="preserve"
     style="font-style:normal;font-variant:normal;font-weight:bold;font-stretch:normal;font-size:40px;line-height:1.25;font-family:sans-serif;-inkscape-font-specification:'sans-serif, Bold';font-variant-ligatures:normal;font-variant-caps:normal;font-variant-numeric:normal;font-variant-east-asian:normal;fill:#000000;fill-opacity:1;stroke:none"
     x="-171.85619"
     y="55.885323"
     id="text2235"><tspan
       sodipodi:role="line"
       id="tspan2233"
       x="-171.85619"
       y="55.885323"
       style="font-style:normal;font-variant:normal;font-weight:bold;font-stretch:normal;font-size:40px;font-family:sans-serif;-inkscape-font-specification:'sans-serif, Bold';font-variant-ligatures:normal;font-variant-caps:normal;font-variant-numeric:normal;font-variant-east-asian:normal">2.0</tspan></text>
</svg>
