<svg
    xmlns:dc="http://purl.org/dc/elements/1.1/"
    xmlns:cc="http://creativecommons.org/ns#"
    xmlns:rdf="http://www.w3.org/1999/02/22-rdf-syntax-ns#"
    xmlns:svg="http://www.w3.org/2000/svg"
    xmlns="http://www.w3.org/2000/svg"
    xmlns:xlink="http://www.w3.org/1999/xlink"
    xmlns:sodipodi="http://sodipodi.sourceforge.net/DTD/sodipodi-0.dtd"
    xmlns:inkscape="http://www.inkscape.org/namespaces/inkscape"
    version="1.1"
    viewBox="0 0 1066.6667 1066.6667"">
                    <path
                        d="
    m 522.66668,1003.1708 c -9.9483,-1.1882 -25.01938,-4.94234 -32.66666,-8.13729 C 470.24664,986.7808 472.22573,988.652 276.90004,793.55161 174.36171,691.13157 87.881765,603.73335 84.722373,599.33335 72.636765,582.50206 66.614882,566.98704 63.892582,545.66668 c -3.441728,-26.95473 3.980807,-54.86821 20.829791,-78.33333 3.159392,-4.4 89.639337,-91.79822 192.177667,-194.21826 C 472.22573,78.014702 470.24664,79.885893 490.00002,71.633188 c 25.97826,-10.853387 60.6884,-10.853387 86.66666,0 19.75338,8.252705 17.77429,6.381514 213.09998,201.481902 102.53833,102.42004 189.01828,189.81826 192.17766,194.21826 16.84899,23.46512 24.27148,51.3786 20.82978,78.33333 -2.7223,21.32036 -8.74416,36.83538 -20.82978,53.66667 -3.15938,4.4 -89.63933,91.79822 -192.17766,194.21826 -195.34923,195.12389 -193.3698,193.25247 -213.09998,201.47263 -14.49465,6.03896 -39.74784,9.84866 -54,8.14656 z m 31.33334,-34.72897 c 4.4,-1.10125 12.2,-4.14725 17.33333,-6.76887 8.67495,-4.43032 22.6036,-18.03682 197.45319,-192.88642 174.8496,-174.84959 188.4561,-188.77824 192.88642,-197.45319 6.46624,-12.6614 9.34207,-24.3592 9.34207,-38 0,-13.6408 -2.87583,-25.3386 -9.34207,-38 C 957.24264,486.6584 943.63614,472.72975 768.78654,297.88016 593.93695,123.03057 580.0083,109.42406 571.33335,104.99373 c -24.68176,-12.605067 -51.31824,-12.605067 -76,0 -8.67495,4.43033 -22.6036,18.03684 -197.45319,192.88643 -174.84959,174.84959 -188.4561,188.77824 -192.88643,197.45319 -12.605067,24.68176 -12.605067,51.31824 0,76 4.43033,8.67495 18.03684,22.6036 192.88643,197.45319 175.01589,175.01589 188.76999,188.4512 197.45319,192.87653 19.61124,9.99472 37.54043,12.06639 58.66667,6.77876 z M 523.14008,938.68895 C 509.59171,935.82388 510.26691,936.45878 347.74252,773.75961 243.09359,668.99815 190.53089,615.47729 189.95545,613.09625 c -1.31235,-5.43016 0.49554,-9.14218 5.46354,-11.21795 6.82247,-2.85061 669.08564,-2.81744 675.90974,0.0339 4.95031,2.06837 6.90346,6.34252 5.32746,11.6583 -0.50487,1.70292 -71.77626,74.0169 -158.38086,160.6977 C 579.0531,913.61292 559.9533,932.2552 553.396,935.19795 c -8.34221,3.74376 -21.74684,5.29043 -30.25592,3.49101 z M 482.00002,572.05416 c -19.13197,-4.17333 -32.70603,-16.90808 -34.87283,-32.71654 l -0.82298,-6.00427 h 14.6775 14.67748 l 0.83338,5.21171 c 1.07487,6.72182 6.77747,11.64882 14.89077,12.86548 12.67758,1.90112 20.61668,-2.62184 20.61668,-11.74551 0,-6.57231 -4.65243,-11.54668 -14,-14.9688 -36.07395,-13.20655 -45.98641,-21.33089 -47.08549,-38.59176 -0.70237,-11.03051 1.43763,-17.19344 8.38131,-24.13712 8.83765,-8.83766 18.08736,-11.83603 36.70418,-11.89796 13.1923,-0.0439 16.25397,0.37218 21.9266,2.97981 13.7061,6.30049 21.26312,15.33361 22.91592,27.39211 l 0.85328,6.22537 h -14.84791 c -14.72309,0 -14.84789,-0.0265 -14.84789,-3.15352 0,-1.73444 -1.17967,-4.65323 -2.62148,-6.48619 -9.93116,-12.62544 -35.06531,-4.08941 -29.25586,9.93585 1.8991,4.58484 9.10379,8.98432 22.544,13.76629 21.81863,7.76297 34.34095,17.49135 37.46932,29.10925 2.3947,8.89323 0.96104,19.67339 -3.5985,27.05842 -3.13602,5.07936 -5.82012,7.3785 -12.72931,10.90368 -7.9604,4.06152 -10.01375,4.51024 -22.61509,4.94209 -7.62287,0.26124 -16.25975,-0.0485 -19.19308,-0.68839 z m 108.32789,-0.16837 c -12.84073,-3.02633 -25.47404,-13.09123 -31.66572,-25.22792 -8.78781,-17.22552 -8.77296,-53.45264 0.0289,-70.70588 10.35964,-20.30655 32.72113,-30.01011 58.52883,-25.39802 19.39319,3.46576 32.42163,16.47542 35.20778,35.15705 l 0.7523,5.04433 -14.05,-0.37767 -14.05,-0.37766 -1.81876,-5.33334 c -4.493,-13.17529 -20.85694,-16.87497 -31.86997,-7.2054 -7.00276,6.14851 -9.38212,14.73866 -9.38212,33.87207 0,24.07853 4.45389,33.93405 17.17435,38.00315 6.17408,1.975 17.13745,0.96684 21.65174,-1.99104 2.83023,-1.85439 3.16475,-3.05692 3.16475,-11.37618 v -9.3026 h -10 -10 v -10 -10 h 24.66667 24.66666 v 25.26548 25.26548 l -4.33333,3.2489 c -7.0488,5.2848 -15.37187,8.96284 -24.80803,10.96288 -9.78452,2.07388 -26.11136,2.30354 -33.86408,0.47637 z m 113.33334,0.0844 c -26.26555,-6.63305 -41.15876,-31.44507 -39.19787,-65.30351 1.59321,-27.50964 11.04741,-43.63411 31.08663,-53.01929 6.93049,-3.24583 9.3174,-3.64526 21.78335,-3.64526 12.40754,0 14.8699,0.40758 21.64772,3.58318 13.90001,6.51253 25.2116,21.06542 28.93822,37.23041 2.0826,9.03371 1.71619,34.13075 -0.62982,43.13768 -4.27923,16.42906 -14.01388,28.50183 -28.22972,35.01004 -8.2706,3.78642 -26.26032,5.31444 -35.39851,3.00671 z m 23.10987,-24.3352 c 10.27418,-6.92377 13.90702,-18.4086 12.95106,-40.94336 -0.43194,-10.18223 -1.33309,-15.68092 -3.28896,-20.06895 -8.10206,-18.17724 -29.1276,-19.55635 -37.83832,-2.4819 -7.47452,14.65125 -5.75925,48.08669 3.0408,59.27414 5.84583,7.43176 17.47287,9.38387 25.13542,4.22007 z m 87.22891,24.41917 C 794.86806,567.88083 781.294,555.14608 779.1272,539.33762 l -0.82298,-6.00427 h 14.6775 14.67748 l 0.83339,5.21171 c 1.07486,6.72182 6.77746,11.64882 14.89076,12.86548 12.67758,1.90112 20.61668,-2.62184 20.61668,-11.74551 0,-6.57231 -4.65243,-11.54668 -14,-14.9688 -36.07395,-13.20655 -45.98641,-21.33089 -47.08549,-38.59176 -0.70237,-11.03051 1.43763,-17.19344 8.38131,-24.13712 8.83766,-8.83766 18.08736,-11.83603 36.70418,-11.89796 13.1923,-0.0439 16.25397,0.37218 21.9266,2.97981 13.7061,6.30049 21.26312,15.33361 22.91592,27.39211 l 0.85328,6.22537 h -14.84791 c -14.72309,0 -14.84789,-0.0265 -14.84789,-3.15352 0,-1.73444 -1.17967,-4.65323 -2.62148,-6.48619 -9.93116,-12.62544 -35.06531,-4.08941 -29.25586,9.93585 1.8991,4.58484 9.10379,8.98432 22.544,13.76629 21.81863,7.76297 34.34095,17.49135 37.46932,29.10925 2.3947,8.89323 0.96104,19.67339 -3.5985,27.05842 -3.13602,5.07936 -5.82012,7.3785 -12.72931,10.90368 -7.9604,4.06152 -10.01375,4.51024 -22.61509,4.94209 -7.62287,0.26124 -16.25975,-0.0485 -19.19308,-0.68839 z m -614.00002,-60.1599 v -60.10577 l 31.66666,0.52666 c 35.84999,0.59621 39.88953,1.43708 50.10589,10.42988 7.60225,6.69176 10.49673,13.89082 10.5119,26.14488 0.0155,12.51924 -4.32037,22.52101 -12.2548,28.26868 -3.04473,2.20559 -6.12661,4.20708 -6.84862,4.44775 -0.72202,0.24068 4.46217,11.6777 11.52041,25.41562 l 12.83316,24.97806 H 281.44184 265.34905 L 254.66667,550.66668 243.9843,529.33335 h -7.32548 -7.32548 v 21.33333 21.33334 h -14.66667 -14.66666 z m 56,-7.56298 c 6.65501,-3.32456 9.39514,-11.3194 6.62556,-19.33126 -2.73276,-7.9053 -7.96155,-10.32857 -22.29223,-10.33127 l -11,-0.002 v 16 16 l 11,-0.003 c 7.80084,-10e-4 12.35721,-0.68008 15.66667,-2.33334 z m 52,7.66874 v -60.00001 h 14.66667 14.66666 v 60.00001 60 h -14.66666 -14.66667 z m 49.33333,0 v -60.00001 h 41.33334 41.33333 v 10.66667 10.66667 h -26.66666 -26.66667 v 13.33333 13.33334 h 22.66667 22.66666 v 10.66666 10.66667 h -22.66666 -22.66667 v 14.66667 14.66666 h 26.66667 26.66666 v 10.66667 10.66667 h -41.33333 -41.33334 z" />
                    </svg>