<svg version="1.1" viewBox="0 0 36 36" preserveAspectRatio="xMidYMid meet" class="has-solid"
                    xmlns="http://www.w3.org/2000/svg" xmlns:xlink="http://www.w3.org/1999/xlink" focusable="false" role="img">
                    <title>ukis</title>
                    <path class="clr-i-solid clr-i-solid-path-1" d="M18,31.5c4.7,0,8.9-2.4,11.3-6.1H6.7C9.1,29.1,13.3,31.5,18,31.5z"/>
                    <path class="clr-i-solid clr-i-solid-path-2" d="M4.5,17.1c0,0.3,0,0.6,0,0.9c0,1.7,0.3,3.4,0.9,4.9h21.2L4.5,17.1z"/>
                    <path class="clr-i-solid clr-i-solid-path-3" d="M31,21.5c0.3-1.1,0.5-2.3,0.5-3.5c0-3-1-5.7-2.6-7.9L8.7,15.6L31,21.5z"/>
                    <path class="clr-i-solid clr-i-solid-path-4" d="M18,4.5c-6,0-11.2,4-12.9,9.5l22-6C24.7,5.8,21.5,4.5,18,4.5z"/>
                </svg>